<?xml version="1.0" encoding="utf-8"?>
<!-- Generator: Adobe Illustrator 21.0.0, SVG Export Plug-In . SVG Version: 6.00 Build 0)  -->
<svg version="1.1" id="Layer_1" xmlns="http://www.w3.org/2000/svg" xmlns:xlink="http://www.w3.org/1999/xlink" x="0px" y="0px"
	 viewBox="0 0 425 270" style="enable-background:new 0 0 425 270;" xml:space="preserve">
<style type="text/css">
	.st0{fill:none;}
	.st1{fill:#7B6757;}
	.st2{fill:#33435A;}
	.st3{fill:#FFC9C3;}
	.st4{fill:#5966D6;}
	.st5{fill:#FDB037;}
	.st6{fill:#FFEFDC;}
	.st7{fill:#424DBF;}
	.st8{fill:#001225;}
	.st9{fill:#D88365;}
	.st10{fill:#4E5FC9;}
	.st11{fill:#FFFFFF;}
	.st12{font-family:'Poppins-Bold';}
	.st13{font-size:9.096px;}
	.st14{opacity:0.8;}
	.st15{fill:#F24D4D;}
	.st16{fill:#F6F6F6;}
	.st17{opacity:0.22;}
	.st18{fill:#F8F8F8;}
	.st19{opacity:0.31;}
	.st20{fill:#747474;}
	.st21{fill:#BACCB0;}
	.st22{fill:#42B549;}
	.st23{fill:#3E5169;}
</style>
<g>
	<g id="XMLID_81_">
		<g id="XMLID_95_">
			<path class="st0" d="M165.1,23.9c-0.4,0.5-0.5,1.3-0.5,2.3C164.8,25.4,165,24.7,165.1,23.9z"/>
		</g>
		<g id="XMLID_94_">
			<polygon class="st1" points="134.2,192.5 133.9,193.5 132.8,196.8 138.4,202.2 142.7,199.9 140.4,195.6 140.2,195.4 140,195.7 
							"/>
		</g>
		<g id="XMLID_93_">
			<path class="st2" d="M164.1,105.8c-3.1,0.6-6.2,1.4-9,3c-1.3,0.7-2.4,1.6-3.5,2.6l-0.2,37.1l-17.5,43.9l0.3,0.2l0.7-2.3l5.3,5.1
				l32.1-49.4l1.7-6l-5.8-34.8C166.8,105.3,165.4,105.5,164.1,105.8z"/>
		</g>
		<g id="XMLID_92_">
			<polygon class="st2" points="134.2,192.5 140,195.7 140.2,195.4 134.9,190.2 			"/>
		</g>
		<g id="XMLID_91_">
			<path class="st2" d="M176.8,129.6l-2.9,10.3l0.7,4l4,52.3h0v-0.8h6.4l8.2-56l-0.4-34.3c-1.5-0.2-8.3-0.8-13-0.9L176.8,129.6z"/>
		</g>
		<g id="XMLID_90_">
			<path class="st2" d="M179.9,104.3c-0.6,0-1.2,0-1.8,0c-3.3,0.1-6.7,0.4-10,0.9l5.8,34.8l2.9-10.3L179.9,104.3z"/>
		</g>
		<g id="XMLID_89_">
			<polygon class="st1" points="178.7,196.2 178.7,198.9 185.6,202.3 189,198.9 185.6,195.4 185.1,195.4 185,196.2 			"/>
		</g>
		<g id="XMLID_88_">
			<polygon class="st1" points="178.7,196.2 185,196.2 185.1,195.4 178.7,195.4 			"/>
		</g>
		<g id="XMLID_87_">
			<path class="st3" d="M173.5,38.1c0.2-0.9,0.5-1.8,1.3-2.2c0.7-0.4,1.6-0.3,2.4-0.6c1.4-0.5,2.1-2.2,2.5-3.6
				c0.4-1.3,0.8-2.6,1.2-3.8c0.2-0.6,0.3-1.2,0.5-1.8c-2.2-0.8-4.3-2.3-6.6-2.9c-2.6-0.6-7.3-1.6-9.5,0.6c0,0-0.1,0.1-0.1,0.2
				c-0.2,0.8-0.3,1.5-0.5,2.3c0,2.2,0.6,5,0.5,6.1c-0.3-0.1-0.6-0.2-0.9-0.4c0.7,1.1,2.1,1.8,3.3,2.3c-0.3,1.6-0.5,3.1-0.5,4.7
				c0.1,0,0.2,0,0.2,0c2.1-0.3,4.2-0.5,6-0.8C173.4,38.1,173.5,38.1,173.5,38.1z"/>
		</g>
		<g id="XMLID_86_">
			<path class="st2" d="M164,29.2c0.2-1,0.4-2,0.6-3c0-1,0.1-1.8,0.5-2.3c0.1-0.5,0.2-0.9,0.3-1.4c0.2-0.8,0.3-1.6,0.8-2.2
				c0.8-1.1,2.2-1.6,3.6-1.8c3.5-0.5,7.2,0.4,9.8,2.8c0.7,0.6,1.3,1.4,1.6,2.3c0.3,0.8,0.2,1.6,0.1,2.5c0.5,0.2,1,0.3,1.5,0.4
				c2,0.4,4.6-0.5,6.4-1.5c2.2-1.2,3.3-4.9,4.6-6.9c0.4-0.5,0.7-1.1,1.2-1.6c0.9-1.1,2.1-2,2.8-3.2c0.8-1.2,1.1-2.8,0.3-4
				c-0.5-0.7-1.4-1.1-2.3-1.4c-2.8-1-6-1.1-8.9-0.5c-2.8,0.6-5.3,1.7-8.1,0.5c-2.6-1.1-4.5-0.7-7.3,0.1c-3,0.9-7,1.1-9.7,2.4
				c-1.1,0.6-2.1,1.5-2.8,2.6c-2.6,3.6-2.8,8.8-0.5,12.6c0.5,0.9,1.1,1.7,1.8,2.4c1.1,1.3,2.4,2.9,3.9,3.7c-0.2-0.3-0.3-0.7-0.4-1
				C163.8,30.3,163.9,29.8,164,29.2z"/>
		</g>
		<g id="XMLID_85_">
			<path class="st2" d="M164.7,26.2c-0.2,1-0.4,2-0.6,3c-0.1,0.5-0.2,1.1-0.2,1.6c0,0.4,0.2,0.7,0.4,1c0.3,0.2,0.6,0.3,0.9,0.4
				C165.2,31.2,164.7,28.4,164.7,26.2z"/>
		</g>
		<g id="XMLID_84_">
			<path class="st2" d="M181.3,23.6c-0.3-0.9-0.9-1.6-1.6-2.3c-2.6-2.4-6.4-3.3-9.8-2.8c-1.4,0.2-2.8,0.6-3.6,1.8
				c-0.4,0.6-0.6,1.4-0.8,2.2c-0.1,0.5-0.2,0.9-0.3,1.4c0-0.1,0.1-0.1,0.1-0.2c2.2-2.2,6.9-1.2,9.5-0.6c2.3,0.6,4.4,2.1,6.6,2.9
				C181.5,25.3,181.5,24.4,181.3,23.6z"/>
		</g>
		<g id="XMLID_83_">
			<polygon class="st3" points="139.5,9.9 140.9,7.1 140.5,6.5 139.7,7 140.2,4.4 139.1,2.5 136.2,2.2 133.6,3.8 133.7,6.7 
				135.4,9.7 135.8,10.8 139.9,10.8 			"/>
		</g>
		<g id="XMLID_82_">
			<path class="st4" d="M219.5,92.1c-1.1-1.5-4.7-2.6-6.3-3.5c-3.6-2.1-7.1-4.5-10.2-7.4c-4.4-4.1-7.6-9.1-9.6-14.8
				c-1-2.9-1.8-5.8-2.4-8.8c-0.2-1.1,1.3-0.2,1.1-1.3l12.8-0.3l-18.7-19.5l-0.1,0.9c0-0.3,0-0.6,0.1-0.9c-4.3,1.7-8.4,0.8-12.8,1.5
				c-0.1,0-0.1,0-0.2,0c-1.8,0.3-3.9,0.5-6,0.8c-2.3,0.3-4.7,0.7-6.6,1.5c-0.6,0.2-1.2,0.6-1.7,1l-12.3-10.7l-5.2-19.8l-1.7,0
				l-4.1,0l-1.5,0l3.5,31.8l12.6,17.6c-0.8,3.4-1.4,6.7-1.7,8.6c-0.7,4.8-1.4,9.7-1.9,14.5c-0.6,5.4-1,10.9-1.1,16.3
				c0,0.6-0.1,2.3-0.1,4.3c-0.1,4.3,0,10.1,1.6,10.3c0.3,0,0.6-0.1,0.8-0.3c1.4-0.8,2.5-1.7,3.7-2.7c1.1-0.9,2.2-1.8,3.5-2.6
				c2.8-1.6,5.9-2.4,9-3c1.3-0.3,2.7-0.5,4.1-0.7c3.3-0.5,6.7-0.8,10-0.9c0.5,0,1.1,0,1.8,0c4.7,0.1,11.5,0.8,13,0.9
				c0.2,0,0.3,0,0.3,0c2.9-0.5,5.6-1.6,8.4-2.6c4.7-1.7,9.6-3.2,14-5.5C217,96.4,220.9,94.2,219.5,92.1z"/>
		</g>
	</g>
	<g id="XMLID_80_">
		<path class="st5" d="M162.4,55.6v-2.8c0-4.5-3.8-8.2-8.4-8.2H66c-4.7,0-8.4,3.7-8.4,8.2v148.2h209.7V63.9c0-4.5-3.8-8.2-8.4-8.2
			H162.4z"/>
	</g>
	<g id="XMLID_79_">
		<rect x="66.9" y="67.5" class="st6" width="193" height="135.1"/>
	</g>
	<g id="XMLID_71_">
		<g id="XMLID_76_">
			<g id="XMLID_78_">
				<polygon class="st3" points="245.3,79.3 239.9,77.5 240.6,75.1 244.6,75.5 244.4,74.3 248.9,76.4 248.5,79 				"/>
			</g>
			<g id="XMLID_77_">
				<polygon class="st7" points="287.6,57.6 272.5,74.2 246.6,74.6 246.5,79.7 277.2,86 298.6,67.6 				"/>
			</g>
		</g>
		<g id="XMLID_75_">
			<path class="st3" d="M302.3,47.9c0.6-1.3,0.7-2.8,0.5-4.3c-0.4-3.1-2.3-6.1-5.2-7.2c-4.4-1.7-9.3,1.4-13.9,0.3
				c-0.4,1.8-0.8,3.7-0.7,5.6c0.2,4,2.8,7.9,6.4,9.5c3.6,1.6,8.1,0.9,11.1-1.7C301.3,49.5,301.9,48.7,302.3,47.9z"/>
		</g>
		<g id="XMLID_74_">
			<polygon class="st8" points="284.8,38.3 299.3,38.9 300.3,50.3 304.8,47.8 305.7,29.6 285.6,25.8 276.1,29.5 275.6,34.7 
				282.5,41.2 			"/>
		</g>
		<g id="XMLID_73_">
			<path class="st7" d="M287.8,56.7l16.4-2.7c0,0,14.2,14.6,22,36.7c7.8,22.1-4.5,54.6-4.5,54.6s-45-6.3-52.4-7.3l11.6-46
				L287.8,56.7z"/>
		</g>
		<g id="XMLID_72_">
			<path class="st3" d="M297.4,51.1c0.4,1.3,1.1,2.6,1.8,3.7c-2.1,0.4-4.2,0.9-6.3,1.3c-0.3-1.5-0.6-3-0.9-4.4
				c1.6-0.1,3.1-0.2,4.7-0.3L297.4,51.1z"/>
		</g>
	</g>
	<g id="XMLID_70_">
		<path class="st9" d="M351.6,138l4-1.4c0,0,3.1,0.2,3.8,1.1l1.2,3.2l-4.4,3.7l-3.9-1.9L351.6,138z"/>
	</g>
	<g id="XMLID_69_">
		<path class="st5" d="M159.4,84.4l-3.1,8.4H66c-4.7,0-8.4,3.7-8.4,8.2v104.7c0,4.5,3.8,8.2,8.4,8.2h192.8c4.7,0,8.4-3.7,8.4-8.2
			V87.2c0-4.5-3.8-8.2-8.4-8.2h-91.5C163.8,78.9,160.6,81.1,159.4,84.4z"/>
	</g>
	<g id="XMLID_68_">
		<path class="st3" d="M194.3,52.3l4-1.4c0,0,3.1,0.2,3.8,1.1l1.2,3.2l-4.4,3.7l-3.9-1.9L194.3,52.3z"/>
	</g>
	<g id="XMLID_65_">
		<g id="XMLID_67_">
			<polygon class="st3" points="262.4,95.8 256.7,96.2 256.4,93.7 260.3,92.6 259.6,91.5 264.6,91.8 265.2,94.3 			"/>
		</g>
		<g id="XMLID_66_">
			<polygon class="st10" points="295.1,61.9 287.6,83.1 263,91.1 264.4,96.1 295.6,93 313,65.4 304,53.9 			"/>
		</g>
	</g>
	<g>
		<text transform="matrix(1.0968 0 0 1 173.4473 89.7269)" class="st11 st12 st13">Em Andamento</text>
	</g>
	<g class="st14">
		<path class="st11" d="M128.6,173.3c-0.1-1.3-0.2-2.7-0.2-4.1c0-9.1,3.3-17.9,9.2-24.8c1.7-2,3.7-3.9,5.8-5.5l3,4
			c-1.8,1.4-3.5,3-5.1,4.7c-5.2,6-8,13.6-8,21.5c0,1.2,0.1,2.4,0.2,3.5L128.6,173.3z"/>
		<path class="st11" d="M181.3,142.9c-4.6-2.6-9.8-4-15.1-4c-5.2,0-10.4,1.3-14.9,3.9l-4.9-8.7c6-3.4,12.9-5.2,19.9-5.2
			c7,0,14,1.8,20,5.3L181.3,142.9z"/>
		<path class="st11" d="M204,173.6l-5-0.6c0.1-1.2,0.2-2.5,0.2-3.7c0-9.6-4.2-18.7-11.4-24.9c-0.5-0.4-1-0.9-1.5-1.3l3.1-4
			c0.6,0.5,1.2,0.9,1.8,1.4c8.3,7.2,13.1,17.7,13.1,28.7C204.3,170.7,204.2,172.2,204,173.6z"/>
		<path class="st11" d="M171.7,162.6L171.7,162.6c-0.1-0.7-0.2-1.3-0.5-1.9l-4.9-20.2l-4.9,20.2c-0.2,0.6-0.4,1.2-0.4,1.8l0,0.1h0
			c0,0.1,0,0.2,0,0.3c0,3,2.4,5.3,5.3,5.3c3,0,5.3-2.4,5.3-5.3C171.7,162.8,171.7,162.7,171.7,162.6L171.7,162.6z"/>
	</g>
	<g id="XMLID_35_">
		<g id="XMLID_38_">
			<g id="XMLID_39_">
				<g id="XMLID_43_">
					<g id="XMLID_57_">
						<g id="XMLID_61_">
							<g id="XMLID_62_">
								<g id="XMLID_64_">
									
										<rect x="71.9" y="141.5" transform="matrix(0.6019 -0.7985 0.7985 0.6019 -77.3301 141.0856)" class="st15" width="61.9" height="13.3"/>
								</g>
								<g id="XMLID_63_">
									<path class="st15" d="M72.2,188.9l-0.1-0.1c-3.3-2.5-4.5-6.6-2.7-9.1l21.2-28.6l12.8,9.2L81.6,189
										C79.8,191.5,75.5,191.5,72.2,188.9z"/>
								</g>
							</g>
						</g>
						<g id="XMLID_58_">
							<g id="XMLID_60_">
								<path class="st15" d="M166.1,131.7c-13.2,17.5-38.1,20.9-55.7,7.6c-17.6-13.3-21.2-38.2-8-55.7
									c13.2-17.5,38.1-20.9,55.7-7.6C175.7,89.3,179.3,114.2,166.1,131.7z"/>
							</g>
							<g id="XMLID_59_">
								<path class="st16" d="M161.6,128.3c-11.3,15-32.8,18-47.9,6.6C98.6,123.5,95.5,102,106.8,87c11.3-15,32.8-18,47.9-6.6
									C169.9,91.8,173,113.3,161.6,128.3z"/>
							</g>
						</g>
					</g>
					<g id="XMLID_53_">
						<g id="XMLID_55_" class="st17">
							<g id="XMLID_56_">
								<path class="st18" d="M137.7,83.2c10.9,0.8,20.1,8.8,22.3,19.5c2.1,10.7-3.5,21.7-13.3,26.3c-2.8,1.3-0.9,5.7,1.9,4.4
									c11.4-5.3,18-17.4,16.4-29.8c-1.6-12.3-11.2-22.1-23.2-24.7c-1.2-0.2-2.3-0.4-3.5-0.5C135.2,78.3,134.6,83,137.7,83.2
									L137.7,83.2z"/>
							</g>
						</g>
						<g id="XMLID_54_" class="st19">
							
								<ellipse transform="matrix(0.6019 -0.7985 0.7985 0.6019 -51.6162 164.169)" class="st18" cx="138.9" cy="133.9" rx="3.1" ry="3.2"/>
						</g>
					</g>
				</g>
				<g id="XMLID_42_">
					<path class="st2" d="M91,151.6l12.1,8.7c0.4,0.3,1,0.2,1.3-0.1l0.1-0.1c0.4-0.4,0.3-1.1-0.2-1.5L92.2,150
						c-0.5-0.3-1.1-0.2-1.4,0.3l0,0C90.5,150.7,90.6,151.3,91,151.6z"/>
				</g>
				<g id="XMLID_40_">
					<g id="XMLID_41_">
						<path class="st2" d="M131.2,140.8c-8.2-0.8-15.9-4.5-21.6-10.4c-5.6-5.9-8.9-13.7-9.4-21.8c-0.5-8.3,2.3-16.5,7.5-22.9
							c5-6.2,12.3-10.5,20.2-11.9c8.2-1.5,16.8,0.2,23.9,4.6c6.8,4.2,12,10.9,14.5,18.5c2.6,8,2,16.7-1.4,24.3
							c-3.3,7.3-9.2,13.2-16.5,16.6C143.1,140.4,137.1,141.3,131.2,140.8c-1.2-0.1-1.3,1.7-0.2,1.8c8.2,0.7,16.4-1.4,23.2-6
							c6.7-4.5,11.6-11.3,14-18.9c2.4-7.9,1.9-16.6-1.3-24.3c-3.1-7.4-8.8-13.6-15.8-17.5c-7.3-4.1-15.9-5.4-24.1-3.9
							c-7.9,1.5-15.1,5.8-20.3,11.8c-5.4,6.2-8.3,14.3-8.4,22.5c-0.1,8.1,2.7,16.1,7.7,22.6c6.1,7.8,15.3,12.7,25,13.6
							C132.2,142.7,132.4,140.9,131.2,140.8z"/>
					</g>
				</g>
			</g>
		</g>
		<g id="XMLID_36_">
			<g id="XMLID_37_">
				<path class="st20" d="M75.7,184.5L75.7,184.5L75.7,184.5L75.7,184.5z M106.5,153.9l0-0.1L106.5,153.9z"/>
			</g>
		</g>
	</g>
	<g>
		<g id="XMLID_21_">
			<g id="XMLID_25_">
				<g id="XMLID_34_">
					<path class="st0" d="M31.4,106.4c1,0.9,2,1.6,3.2,2c0.1,0.9,0.2,1.9,0.5,2.5c-1.3,0.1-2.5,0.3-3.7,0.4c0-0.9-0.1-1.8-0.1-2.7
						C31.3,107.9,31.4,107.1,31.4,106.4z"/>
				</g>
				<g id="XMLID_33_">
					<polygon class="st8" points="28.8,261.8 29,262 31.6,265.2 28.6,267.8 23.3,264.3 23.5,261.4 23.5,260.5 28.7,262.2 					"/>
				</g>
				<g id="XMLID_32_">
					<path class="st2" d="M28.8,198.6l-5.5,61.8l0.3,0.1l5.1,1.6l0.1-0.3l12.8-47.3l-0.1-16.1C37.3,198.5,33,198.6,28.8,198.6z"/>
				</g>
				<g id="XMLID_31_">
					<path class="st2" d="M57,199.9l-3.2,62.6l-5.2,0.1l0,0.6l0,0l-5-62C44.3,201.3,53.2,200.7,57,199.9z"/>
				</g>
				<g id="XMLID_30_">
					<polygon class="st8" points="53.8,262 54.2,262 57,264.8 54.3,267.8 48.7,265 48.6,262.8 53.7,262.6 					"/>
				</g>
				<g id="XMLID_29_">
					<path class="st3" d="M47.2,95.2C47.1,94.1,47,93,46.8,92c-0.5-2.6-1.6-4.4-3.1-5.6c-0.3,1.3-1.3,2.4-2.2,3.5
						c0,0-0.1,0.1-0.1,0.1c-2.5,2.7-4.9,5.3-6.9,8.4c-1.5,2.4-2.7,5.2-3,8c1,0.9,2,1.6,3.2,2c0.1,0.9,0.2,1.9,0.5,2.5
						c0.1,0.1,0.2,0.3,0.2,0.4c0.8,0.7,3.2,0.1,4.2-0.1c0.3-0.1,0.5-0.1,0.7-0.3c0.1-0.1,0.1-0.2,0.2-0.3c0.2-0.5,0.2-1.4,0.2-2.1
						c2.9-1.1,5-3.8,5.9-6.8C47.2,99.5,47.4,97.3,47.2,95.2z"/>
				</g>
				<g id="XMLID_28_">
					<path class="st7" d="M72.9,195.8c-5.1-6.7-4.9-18-6-25.9c-1.2-8.2-2.4-16.4-4.5-24.4c-0.2-0.8-0.4-1.5-0.6-2.3
						c-0.5-1.7-1-3.4-1.5-5.1c-1.3-3.9-2.7-7.7-4.4-11.5c-1.8-4.1-4.1-10.8-7.4-13.9c-0.1-0.1-0.2-0.2-0.3-0.3
						c-1.8-1.4-4.6-1.8-7.7-1.8c0,0.1-0.1,0.2-0.2,0.3c-0.2,0.2-0.5,0.3-0.7,0.3c-1,0.2-3.4,0.8-4.2,0.1c-0.1-0.1-0.2-0.2-0.2-0.4
						c-1.3,0.1-2.5,0.3-3.7,0.4c0.3,6.2,0.7,12.5,2.4,18.6c0,0.1,0.1,0.3,0.1,0.4c2.3,7.4,4.1,15,6.2,22.5c0.2,0.7,0.4,1.3,0.5,2
						c0.7,2.7,1.2,5.6,0.9,8.3c-0.1,0.7-0.2,1.4-0.5,2c-0.5,1.6-1.4,3-2.5,4.1c-0.6,0.6-1.4,1.1-2.2,1.4c-0.3,0.1-0.6,0.2-0.9,0.3
						c-1.3-2-4.4-0.1-5.2,2.1c-0.8,2.2-0.9,5-3,6.2c-1.6,0.9-3.7,0.5-5.7,0.2c-1.3-0.2-2.5-0.3-3.6,0c-1.1,0.3-2.1,0.9-3,1.2
						c-1.9,5.6-5.1,10.1-10,14.6c-1,0.9-2.2,2.2-1.9,3.5c0.2,0.8,0.9,1.4,1.7,1.8c7,4.5,15.9,4.8,24.3,4.7c0,0,0.1,0,0.1,0
						c4.2,0,8.5-0.1,12.7-0.3c1.4,0,2.9-0.1,4.3-0.2c0.6,0,1.3-0.1,1.9-0.1c3.7-0.2,7.7-0.5,11.5-1.3c4.6-1,9.1-2.6,12.9-5.3
						c0.4-0.3,0.9-0.7,0.9-1.3C73.5,196.6,73.2,196.2,72.9,195.8z"/>
				</g>
				<g id="XMLID_27_">
					<polygon class="st3" points="91.6,135.8 93.9,134 94.6,134.3 94.2,135.1 96.6,134.2 98.6,134.8 99.4,137.4 98.4,140.1 
						95.7,140.7 92.6,139.6 90.8,139.4 91.3,135.8 					"/>
				</g>
				<g id="XMLID_26_">
					<polygon class="st7" points="91.6,140.5 91.4,134.5 64.8,127.9 48.1,112.3 47.1,129 61.2,138.3 					"/>
				</g>
			</g>
			<g id="XMLID_22_">
				<g id="XMLID_24_">
					<polygon class="st3" points="84.7,149.4 87.1,147.6 87.7,148 87.3,148.7 89.7,147.9 91.7,148.5 92.4,151.2 91.4,153.8 
						88.7,154.3 85.6,153.2 83.8,152.9 84.4,149.3 					"/>
				</g>
				<g id="XMLID_23_">
					<polygon class="st10" points="84.7,154 84.5,148 58,141.4 31.5,111.3 20.9,126.2 54.4,151.9 					"/>
				</g>
			</g>
		</g>
		<g id="XMLID_20_">
			<path class="st2" d="M48.5,89.2c-0.4-2.9-2.2-5.5-4.8-6.9c-0.2,0.1-0.4,0.2-0.6,0.4c-0.2-0.4-0.5-0.7-0.7-1.1c-1.6-2-3.6-3-6.1-3
				c-8.8-0.3-15.4,4.9-17.9,13.4c-2.2,7.2-1.2,14.9-0.8,22.5c0.6,11.3-1.8,24.4-8.5,33.6c-2.7,3.8-5.7,7.6-6.8,12.1
				c-1.1,4.5,0.2,10.1,4.3,12.2c1.6,0.8,3.5,1.1,4.9,2.3c1.5,1.2,1.6,3.3,0.2,4.6c1.1,1.9,2.2,1.9,3.4,1.5c1-0.3,2-0.9,3-1.2
				c1.1-0.3,2.4-0.2,3.6,0c2,0.3,4.1,0.7,5.7-0.2c2-1.2,2.2-4,3-6.2c0.8-2.2,3.9-4.1,5.2-2.1c0.3-0.1,0.6-0.2,0.9-0.3
				c0.8-0.3,1.5-0.8,2.2-1.4c1.2-1.1,2-2.6,2.5-4.1c0.2-0.7,0.4-1.3,0.5-2c0.4-2.8-0.2-5.6-0.9-8.3c-0.2-0.7-0.4-1.3-0.5-2
				c-2.1-7.5-3.9-15.1-6.2-22.5c0-0.1-0.1-0.3-0.1-0.4c-1.8-6-2.2-12.3-2.4-18.6c0-0.9-0.1-1.8-0.1-2.7c0-0.7,0-1.5,0.1-2.2
				c0.3-2.8,1.5-5.6,3-8c1.9-3.1,4.4-5.7,6.9-8.4c0,0,0.1-0.1,0.1-0.1c0.9-1,1.9-2.1,2.2-3.5c1.5,1.2,2.6,3,3.1,5.6
				c0.2,1,0.3,2.1,0.4,3.2C48.3,93.4,48.8,91.2,48.5,89.2z"/>
		</g>
	</g>
	<g>
		<g id="XMLID_4_">
			<g id="XMLID_5_">
				<g id="XMLID_9_">
					<g id="XMLID_19_">
						<polygon class="st7" points="412.9,183.4 405.7,215.2 399.1,253.1 392.4,253.1 389.7,161 411.7,161.4 						"/>
					</g>
					<g id="XMLID_17_">
						<g id="XMLID_18_">
							<polygon class="st7" points="370.7,181.5 369.8,212.4 379.1,253.1 385,253.1 385.7,210.1 392.2,175 393.8,163.7 375.5,161.6 
															"/>
						</g>
					</g>
					<g id="XMLID_16_">
						<path class="st2" d="M385.2,98.4l20.8,1.5l11.2,19.4c-3.3,11.8-2,7.6-4,18.3l5.9,29.3l-7.8,2.3l-28.2,0.5L374,168l2.5-27.9
							l-1.3-37.3L385.2,98.4z"/>
					</g>
					<g id="XMLID_15_">
						<polygon class="st2" points="381.1,113.6 370.6,129.7 341.7,132.9 340.9,128.1 364,119.1 375.2,102.7 						"/>
					</g>
					<g id="XMLID_10_">
						<g id="XMLID_14_">
							<path class="st9" d="M386.3,80.4c3.2-9.2,15.3-5.7,17.8,2.4c1.6,5.3-2.5,12.2-8,13.8c0,0.2,0,0.4,0,0.6
								c0,0.9-0.1,1.7-0.2,2.6c0,0.3-4.9-0.6-5.4-0.7c-0.2,0-0.4-0.1-0.5-0.2c-0.2-0.3,0.1-1.2,0.2-1.5c0-0.4,0.1-0.8,0.1-1.2
								c-2.7-1.3-4.4-4.2-4.9-7C384.7,86.1,385.3,83.2,386.3,80.4z"/>
						</g>
						<g id="XMLID_11_">
							<g id="XMLID_13_">
								<path class="st2" d="M395,71.9c0.6,0.7,0.8,1.6,0.9,2.5c0.1,0.5,0.1,1.1,0,1.6c-0.6,2-2.7,1.8-4.3,2.3
									c-2,0.7-3.8,2.1-5.1,3.7c-1.9,2.6-1.4,6.2-1,9.3c0.2,1.1,0.5,2.7-0.4,3.6c-0.9,0.9-2.8,0.6-3.8,0c-0.9-0.5-1.6-1.4-2.6-1.7
									c-1.1-0.3-2.5,0.1-3-0.9c-0.1-0.3-0.1-0.6-0.3-0.9c-0.5-0.9-2.1,0-2.9-0.7c-0.5-0.4-0.4-1.2-0.2-1.8
									c0.2-0.6,0.6-1.2,0.5-1.8c-0.1-0.5-0.4-1-0.6-1.5c-0.4-1-0.1-2.3,0.6-3c1.4-1.4,4-0.9,5.5-2.3c0.8-0.7,1.2-1.7,1.5-2.7
									c0.4-1,0.8-2,1.6-2.7c1-0.8,2.4-0.5,3.5-1.5c0.6-0.6,1-1.3,1.7-1.8c0.9-0.6,2.5-1,3.6-1.3C392,70.1,393.9,70.5,395,71.9z"/>
							</g>
							<g id="XMLID_12_">
								<path class="st2" d="M401.5,87c-0.2,3-1.9,6.2-0.7,8.9c1.2,2.8,4.6,3.5,7.6,3.9c0.5,0.1,6.7,1.1,6.8,1
									c0.6-2.1,1.3-4.2,2.5-5.9c1.2-1.8,3.2-3.1,5.3-3.1c-0.6-0.2-0.8-0.9-0.7-1.5c0.1-0.6,0.5-1.2,0.7-1.7
									c0.6-1.4,0.3-3.2-0.8-4.3c-2.1-2.2-6.1-1.7-7.9-4.2c-1.1-1.6-0.8-3.7-1.2-5.5c-0.9-3.6-4.7-4.6-7.4-6.4
									c-2.9-1.9-5.6-3-9.1-2.7c-4.4,0.4-7.9,4.5-6.5,8.8c1.7,5.4,10.3,5.6,11.4,11.1C401.5,85.8,401.5,86.4,401.5,87z"/>
							</g>
						</g>
					</g>
				</g>
				<g id="XMLID_8_">
					<polygon class="st11" points="399.1,99.4 393,108.1 390.1,107.8 386.2,98.4 					"/>
				</g>
				<g id="XMLID_7_">
					<polygon class="st2" points="392.4,253.1 388.9,257.7 392.2,261.3 396.8,257.2 399.1,253.1 					"/>
				</g>
				<g id="XMLID_6_">
					<polygon class="st2" points="378.6,253.1 375,257.7 378.4,261.3 383,257.2 385.3,253.1 					"/>
				</g>
			</g>
		</g>
		<path class="st21" d="M283.9,120.1v-2.4c0-3.9-3.2-7-7.2-7h-74.8c-4,0-7.2,3.1-7.2,7v126.1H373V127.1c0-3.9-3.2-7-7.2-7H283.9z"/>
		<rect x="202.6" y="130.2" class="st6" width="164.2" height="114.9"/>
		<g>
			<path class="st22" d="M281.3,144.5l-2.6,7.2h-76.8c-4,0-7.2,3.1-7.2,7v89c0,3.9,3.2,7,7.2,7h164c4,0,7.2-3.1,7.2-7V146.9
				c0-3.9-3.2-7-7.2-7h-77.8C285.1,139.9,282.4,141.8,281.3,144.5z"/>
			<g class="st14">
				<path class="st11" d="M247.9,221.9c-0.1-1.4-0.2-2.8-0.2-4.2c0-9.3,3.4-18.3,9.4-25.3c1.8-2.1,3.8-3.9,5.9-5.6l3.1,4.1
					c-1.9,1.4-3.6,3-5.2,4.8c-5.3,6.1-8.2,13.9-8.2,22c0,1.2,0.1,2.4,0.2,3.6L247.9,221.9z"/>
				<path class="st11" d="M328.1,222.4l-10.2-1.1c0.1-1.2,0.2-2.3,0.2-3.5c0-9-3.9-17.6-10.7-23.5c-0.5-0.4-1-0.8-1.5-1.2l6.2-8.1
					c0.7,0.5,1.3,1,1.9,1.6c9.1,7.9,14.3,19.2,14.3,31.3C328.3,219.3,328.2,220.9,328.1,222.4z"/>
				<path class="st11" d="M303.1,188.6c-5-2.9-10.8-4.4-16.6-4.4c-5.8,0-11.5,1.5-16.5,4.3l-2.5-4.5c5.8-3.3,12.4-5,19-5
					c6.7,0,13.4,1.8,19.2,5.1L303.1,188.6z"/>
				<path class="st11" d="M288.8,218.1c0.3,0,0.6,0,0.8-0.1v0.1l22.6-5.5l-22.6-5.5v0.1c-0.3,0-0.6-0.1-0.8-0.1
					c-3,0-5.5,2.4-5.5,5.5S285.8,218.1,288.8,218.1z"/>
			</g>
			<g class="st14">
				<text transform="matrix(1.0968 0 0 1 298.334 150.3582)" class="st11 st12 st13">Cumprido</text>
			</g>
			<g id="XMLID_1_">
				<g id="XMLID_3_">
					<polygon class="st9" points="356.8,150.2 351,150.8 350.7,152.8 347.1,155.3 348.7,157.6 356.2,155.2 					"/>
				</g>
				<g id="XMLID_2_">
					<polygon class="st23" points="417.2,119.3 396.2,141.4 386.7,145 355.7,156.1 356.3,149 387.4,132.5 405.3,99.9 413.5,104.4 
											"/>
				</g>
			</g>
		</g>
	</g>
</g>
</svg>
