<svg xmlns="http://www.w3.org/2000/svg" viewBox="0 0 12.434 11.95"><defs><style>.a{fill:#8e8e8e;}</style></defs><path class="a" d="M8.052,7.764h3.054a1.5,1.5,0,0,0,1.3-1.759c-.278-1.388-.648-2.869-.926-4.258a3.919,3.919,0,0,0-.37-1.111A1.256,1.256,0,0,0,9.9-.011H.555A.491.491,0,0,0,0,.544V6.468c0,.555.185.74.74.74A14.331,14.331,0,0,1,2.777,7.3a3,3,0,0,1,2.406,3.054,1.526,1.526,0,0,0,1.388,1.573,1.6,1.6,0,0,0,1.666-1.2,6.072,6.072,0,0,0-.093-2.592c-.093-.093-.093-.185-.093-.37ZM3.147,1.007H9.811c.37,0,.555.093.648.463,0,.093.093.278.093.37.278,1.388.648,2.777.926,4.165.093.37-.093.555-.463.648H7.4c-.555,0-.74.37-.555.833a4.922,4.922,0,0,1,.463,2.777c-.093.463-.278.648-.555.648s-.463-.278-.555-.648V9.707A4.1,4.1,0,0,0,3.332,6.375c-.185,0-.185-.093-.185-.278V1.007Zm-1.111,0V6.19H1.018V1.007Z" transform="translate(0 0.011)"/></svg>