<svg xmlns="http://www.w3.org/2000/svg" viewBox="0 0 12.434 11.95"><defs><style>.a{fill:#8e8e8e;}</style></defs><path class="a" d="M8.052,4.164h3.054a1.5,1.5,0,0,1,1.3,1.759c-.278,1.388-.648,2.869-.926,4.258a3.919,3.919,0,0,1-.37,1.111,1.256,1.256,0,0,1-1.2.648H.555A.491.491,0,0,1,0,11.384V5.46c0-.555.185-.74.74-.74a14.331,14.331,0,0,0,2.036-.093A3,3,0,0,0,5.183,1.573,1.526,1.526,0,0,1,6.571,0,1.6,1.6,0,0,1,8.237,1.2a6.072,6.072,0,0,1-.093,2.592c-.093.093-.093.185-.093.37ZM3.147,10.921H9.811c.37,0,.555-.093.648-.463,0-.093.093-.278.093-.37.278-1.388.648-2.777.926-4.165.093-.37-.093-.555-.463-.648H7.4c-.555,0-.74-.37-.555-.833a4.922,4.922,0,0,0,.463-2.777c-.093-.463-.278-.648-.555-.648s-.463.278-.555.648v.555A4.1,4.1,0,0,1,3.332,5.553c-.185,0-.185.093-.185.278v5.091Zm-1.111,0V5.738H1.018v5.183Z" transform="translate(0 0.011)"/></svg>