<svg xmlns="http://www.w3.org/2000/svg" viewBox="0 0 208 126.32"><defs><style>.a{fill:#1b2c53;}.b{fill:#bad331;}.c{fill:#dc2b26;}.d{fill:#fcc80a;}</style></defs><g transform="translate(0 91.878)"><path class="a" d="M6.205,202.9c2.261,0,3.848.625,4.858,1.828a7.852,7.852,0,0,1,1.491,5.1v3.415a7.41,7.41,0,0,1-1.587,5.147c-1.058,1.154-2.742,1.732-5,1.732H3.175v11.208H0V202.9Zm-.241,14.383a3.575,3.575,0,0,0,2.646-.866,4.036,4.036,0,0,0,.866-2.934v-3.8a4.642,4.642,0,0,0-.77-2.934,3.022,3.022,0,0,0-2.5-.962H3.175v11.5Z" transform="translate(0 -197.176)"/><path class="a" d="M37.85,202.9c2.261,0,3.848.577,4.858,1.684a6.946,6.946,0,0,1,1.491,4.81V211.7a7.288,7.288,0,0,1-.866,3.8,4.52,4.52,0,0,1-2.694,2.02,4.255,4.255,0,0,1,2.742,2.068,8.29,8.29,0,0,1,.818,3.848v4.426c0,.625.048,1.2.1,1.828a3.6,3.6,0,0,0,.481,1.587H41.554a4.052,4.052,0,0,1-.385-1.3,11.714,11.714,0,0,1-.144-2.117v-4.474a4.228,4.228,0,0,0-1.058-3.319,4.528,4.528,0,0,0-3.079-.914H34.675v12.17H31.5V202.9Zm-.818,13.421a4.987,4.987,0,0,0,2.982-.77c.722-.529,1.058-1.539,1.058-3.127v-2.742a4.642,4.642,0,0,0-.77-2.934,3.063,3.063,0,0,0-2.549-.962H34.675v10.487h2.357Z" transform="translate(-16.347 -197.176)"/><path class="a" d="M64.3,209.519a7.8,7.8,0,0,1,1.587-5.2,5.947,5.947,0,0,1,4.907-1.924,5.947,5.947,0,0,1,4.907,1.924,7.992,7.992,0,0,1,1.636,5.2v14.672a7.732,7.732,0,0,1-1.636,5.2,6.01,6.01,0,0,1-4.907,1.924,6.01,6.01,0,0,1-4.907-1.924,7.975,7.975,0,0,1-1.587-5.2Zm3.127,14.864a5.043,5.043,0,0,0,.818,3.031,3.015,3.015,0,0,0,2.549,1.058,2.956,2.956,0,0,0,2.549-1.058,5.043,5.043,0,0,0,.818-3.031V209.375a5.043,5.043,0,0,0-.818-3.031,2.956,2.956,0,0,0-2.549-1.058,3.015,3.015,0,0,0-2.549,1.058,4.732,4.732,0,0,0-.818,3.031Z" transform="translate(-33.369 -196.916)"/><path class="a" d="M108.035,231.281h-3.079l-4.714-22.609v22.657H97.5V202.9h4.426l4.666,22.7,4.522-22.7h4.426v28.429h-2.982V208.48Z" transform="translate(-50.599 -197.176)"/><path class="a" d="M151.8,215.5v2.838h-6.927v10.1h8.514v2.886H141.7V202.9h11.689v2.886h-8.514V215.5Z" transform="translate(-73.537 -197.176)"/><path class="a" d="M177.805,202.3a5.806,5.806,0,0,1,4.81,1.924,8.243,8.243,0,0,1,1.539,5.2v.77h-2.982v-.914a4.8,4.8,0,0,0-.77-2.982,2.826,2.826,0,0,0-2.453-1.058,2.715,2.715,0,0,0-2.453,1.058,4.89,4.89,0,0,0-.77,2.982,5.067,5.067,0,0,0,.722,2.742,10.645,10.645,0,0,0,1.78,2.165c.722.673,1.491,1.3,2.309,1.924a23.608,23.608,0,0,1,2.309,2.068,10.818,10.818,0,0,1,1.78,2.6,7.6,7.6,0,0,1,.722,3.415,8.242,8.242,0,0,1-1.539,5.2,5.845,5.845,0,0,1-4.858,1.924c-2.213,0-3.8-.625-4.81-1.924a8.242,8.242,0,0,1-1.539-5.2v-1.636h2.982v1.78a4.788,4.788,0,0,0,.818,2.982,2.92,2.92,0,0,0,2.5,1.058,2.862,2.862,0,0,0,2.5-1.058,4.886,4.886,0,0,0,.818-2.982,5.067,5.067,0,0,0-.722-2.742,10.644,10.644,0,0,0-1.78-2.165c-.722-.673-1.443-1.3-2.261-1.972a18.617,18.617,0,0,1-2.261-2.068,10.817,10.817,0,0,1-1.78-2.6,7.6,7.6,0,0,1-.722-3.415,8.056,8.056,0,0,1,1.539-5.2C174.1,202.973,175.689,202.3,177.805,202.3Z" transform="translate(-89.054 -196.864)"/><path class="a" d="M209.205,202.3a5.806,5.806,0,0,1,4.81,1.924,8.243,8.243,0,0,1,1.539,5.2v.77h-2.982v-.914a4.8,4.8,0,0,0-.77-2.982,2.826,2.826,0,0,0-2.453-1.058,2.715,2.715,0,0,0-2.453,1.058,4.89,4.89,0,0,0-.77,2.982,5.067,5.067,0,0,0,.722,2.742,10.645,10.645,0,0,0,1.78,2.165c.722.673,1.491,1.3,2.309,1.924a23.608,23.608,0,0,1,2.309,2.068,10.818,10.818,0,0,1,1.78,2.6,7.6,7.6,0,0,1,.722,3.415,8.243,8.243,0,0,1-1.539,5.2,5.845,5.845,0,0,1-4.858,1.924c-2.213,0-3.8-.625-4.81-1.924a8.242,8.242,0,0,1-1.539-5.2v-1.636h2.982v1.78a4.788,4.788,0,0,0,.818,2.982,2.92,2.92,0,0,0,2.5,1.058,2.862,2.862,0,0,0,2.5-1.058,4.886,4.886,0,0,0,.818-2.982,5.067,5.067,0,0,0-.722-2.742,10.644,10.644,0,0,0-1.78-2.165c-.722-.673-1.443-1.3-2.261-1.972a18.618,18.618,0,0,1-2.261-2.068,10.818,10.818,0,0,1-1.78-2.6,7.6,7.6,0,0,1-.722-3.415,8.056,8.056,0,0,1,1.539-5.2C205.453,202.973,207.041,202.3,209.205,202.3Z" transform="translate(-105.35 -196.864)"/><path class="a" d="M240.794,196.436a5.947,5.947,0,0,1,4.907,1.924,7.992,7.992,0,0,1,1.636,5.2v14.672a7.732,7.732,0,0,1-1.636,5.2,7.218,7.218,0,0,1-9.813,0,7.975,7.975,0,0,1-1.587-5.2V203.555a7.8,7.8,0,0,1,1.587-5.2A6.231,6.231,0,0,1,240.794,196.436Zm-2.117-1.347h-2.742L239.447,191h2.79l3.512,4.089h-2.742l-2.213-2.405Zm2.117,4.233a3.015,3.015,0,0,0-2.55,1.058,4.732,4.732,0,0,0-.818,3.031v15.008a5.043,5.043,0,0,0,.818,3.031,3.015,3.015,0,0,0,2.55,1.058,2.956,2.956,0,0,0,2.549-1.058,5.043,5.043,0,0,0,.818-3.031V203.411a5.043,5.043,0,0,0-.818-3.031A3.026,3.026,0,0,0,240.794,199.322Z" transform="translate(-121.593 -191)"/><path class="a" d="M278.087,231.281h-3.031l-4.714-22.609v22.657H267.6V202.9h4.426l4.666,22.7,4.522-22.7h4.426v28.429h-2.982V208.48Z" transform="translate(-138.875 -197.176)"/><path class="a" d="M321.9,215.5v2.838h-6.927v10.1h8.514v2.886H311.8V202.9h11.689v2.886h-8.514V215.5Z" transform="translate(-161.813 -197.176)"/><path class="a" d="M345.043,231.329V205.786H339.8V202.9h13.613v2.886H348.17v25.543Z" transform="translate(-176.344 -197.176)"/><path class="a" d="M378.85,202.9c2.261,0,3.848.577,4.858,1.684a6.946,6.946,0,0,1,1.491,4.81V211.7a7.288,7.288,0,0,1-.866,3.8,4.52,4.52,0,0,1-2.694,2.02,4.255,4.255,0,0,1,2.742,2.068,8.29,8.29,0,0,1,.818,3.848v4.426c0,.625.048,1.2.1,1.828a3.6,3.6,0,0,0,.481,1.587h-3.223a4.052,4.052,0,0,1-.385-1.3,11.713,11.713,0,0,1-.144-2.117v-4.474a4.228,4.228,0,0,0-1.058-3.319,4.528,4.528,0,0,0-3.079-.914h-2.213v12.17H372.5V202.9Zm-.818,13.421a4.987,4.987,0,0,0,2.982-.77c.722-.529,1.058-1.539,1.058-3.127v-2.742a4.642,4.642,0,0,0-.77-2.934,3.063,3.063,0,0,0-2.549-.962h-3.079v10.487h2.357Z" transform="translate(-193.314 -197.176)"/><path class="a" d="M405.3,209.519a7.8,7.8,0,0,1,1.587-5.2,7.218,7.218,0,0,1,9.813,0,7.992,7.992,0,0,1,1.635,5.2v14.672a7.732,7.732,0,0,1-1.635,5.2,7.218,7.218,0,0,1-9.813,0,7.975,7.975,0,0,1-1.587-5.2Zm3.127,14.864a5.043,5.043,0,0,0,.818,3.031,3.015,3.015,0,0,0,2.549,1.058,2.956,2.956,0,0,0,2.549-1.058,5.043,5.043,0,0,0,.818-3.031V209.375a5.043,5.043,0,0,0-.818-3.031,2.956,2.956,0,0,0-2.549-1.058,3.015,3.015,0,0,0-2.549,1.058,4.732,4.732,0,0,0-.818,3.031Z" transform="translate(-210.336 -196.916)"/></g><g transform="translate(7.841)"><g transform="translate(0 52.574)"><g transform="translate(172.572)"><path class="a" d="M385.993,138.688a3.634,3.634,0,0,1-3.608-3.608,35.094,35.094,0,0,0-6.686-20.155,3.568,3.568,0,0,1,.914-5,3.611,3.611,0,0,1,5,.914c5.291,7.648,7.985,15.778,7.985,24.244A3.573,3.573,0,0,1,385.993,138.688Z" transform="translate(-375.05 -109.293)"/></g><g transform="translate(0 2.453)"><path class="a" d="M19.908,141.334a3.634,3.634,0,0,1-3.608-3.608,41.525,41.525,0,0,1,6.253-21.6,3.605,3.605,0,0,1,6.157,3.752,34.171,34.171,0,0,0-5.2,17.846A3.573,3.573,0,0,1,19.908,141.334Z" transform="translate(-16.3 -114.392)"/></g></g><g transform="translate(125.985 5.099)"><path class="b" d="M285.177,10.6s-6.4,23.907-6.927,32.085c-.577,8.081,4.233,23.667,14.912,26.649s22.993-7.745,26.746-14.912c3.8-7.264,10.775-31.027,10.775-31.027s-15.73.144-24.533-2.309C297.2,18.537,285.177,10.6,285.177,10.6Zm17.029,34.538a3.13,3.13,0,0,1-2.261.289,2.847,2.847,0,0,1-1.78-1.4c-.048-.144-.048-.289.1-.337s.289-.048.337.1a2.505,2.505,0,0,0,3.367.962c.144-.048.289-.048.337.1C302.4,44.9,302.35,45.09,302.206,45.138Zm19.819-11.785a14.156,14.156,0,0,1-1.4-.577c-.385-.192-.866-.433-1.347-.722s-1.01-.577-1.539-.866c-.529-.337-1.01-.625-1.491-.962s-.866-.625-1.251-.914c-.722-.577-1.155-.962-1.155-.962a14.15,14.15,0,0,1,1.4.577c.385.192.866.433,1.347.722s1.01.577,1.539.866c.529.337,1.01.625,1.491.962s.866.625,1.251.914A10.9,10.9,0,0,1,322.024,33.353Zm-7.793,7.167c-2.6-.722-4.377-2.357-4.041-3.608s2.742-1.732,5.34-1.01,4.377,2.357,4.041,3.608C319.186,40.809,316.829,41.242,314.232,40.52Zm-25.88,5.869a1.747,1.747,0,0,1,2.405.673,11.849,11.849,0,0,0,16.163,4.522,1.766,1.766,0,1,1,1.732,3.079,15.524,15.524,0,0,1-11.737,1.4,15.287,15.287,0,0,1-9.284-7.264A1.852,1.852,0,0,1,288.352,46.389Zm-3.079-16.451c.337-1.251,2.742-1.732,5.34-1.01s4.377,2.357,4.041,3.608-2.742,1.732-5.34,1.01S284.888,31.188,285.273,29.938Zm1.106-6.59a11.935,11.935,0,0,1,1.491-.241c.433-.048.962-.1,1.539-.144s1.154-.048,1.78-.048c.577,0,1.2,0,1.78.048a13.855,13.855,0,0,1,1.539.1c.914.1,1.491.192,1.491.192a11.937,11.937,0,0,1-1.491.241c-.433.048-.962.1-1.539.144s-1.154.048-1.78.048c-.577,0-1.2,0-1.78-.048a13.853,13.853,0,0,1-1.539-.1A9.736,9.736,0,0,1,286.38,23.347Z" transform="translate(-278.204 -10.6)"/></g><g transform="translate(7.697 5.965)"><path class="c" d="M32.3,24.859s6.831,23.763,10.535,31.075c3.656,7.216,15.826,18.135,26.505,15.2,10.727-2.934,15.778-18.472,15.3-26.553C84.156,36.4,77.9,12.4,77.9,12.4S64.481,20.626,55.678,23.031C46.683,25.484,32.3,24.859,32.3,24.859ZM64.674,45.688a2.847,2.847,0,0,1-1.78,1.4,2.906,2.906,0,0,1-2.261-.289c-.144-.048-.144-.241-.1-.337.048-.144.241-.144.337-.1a2.489,2.489,0,0,0,3.367-.914c.048-.144.241-.144.337-.1A.213.213,0,0,1,64.674,45.688Zm10.2-22.849a12.2,12.2,0,0,1-1.106,1.154,14.239,14.239,0,0,1-1.2,1.106c-.433.385-.914.77-1.4,1.154s-1.01.77-1.491,1.106-.914.625-1.347.914c-.818.481-1.347.77-1.347.77a12.2,12.2,0,0,1,1.106-1.154,14.24,14.24,0,0,1,1.2-1.106c.433-.385.914-.77,1.4-1.154s1.01-.77,1.491-1.106.914-.625,1.347-.914C74.294,23.127,74.872,22.838,74.872,22.838Zm-7.6,11.737C67.079,33.806,69,32.6,71.6,31.93c2.6-.722,4.858-.673,5.051.1S74.92,34,72.322,34.672C69.773,35.345,67.464,35.345,67.271,34.576ZM58.228,56.319a9.6,9.6,0,0,1,5.917-4.57,9.941,9.941,0,0,1,7.408.914,1.766,1.766,0,0,1-1.732,3.079,6.208,6.208,0,0,0-4.714-.577,6.3,6.3,0,0,0-3.752,2.886,1.623,1.623,0,0,1-1.058.818,1.69,1.69,0,0,1-1.347-.192A1.709,1.709,0,0,1,58.228,56.319ZM42.306,41.358c-.192-.77,1.732-1.972,4.329-2.646,2.6-.722,4.858-.673,5.051.1s-1.732,1.972-4.329,2.646C44.807,42.176,42.546,42.128,42.306,41.358ZM39.179,32.6a13.866,13.866,0,0,1,1.587,0c.481,0,1.01.048,1.587.1s1.2.1,1.828.192,1.251.192,1.828.289,1.106.241,1.587.337c.914.241,1.539.433,1.539.433a13.868,13.868,0,0,1-1.587,0c-.481,0-1.01-.048-1.587-.1s-1.2-.1-1.828-.192-1.251-.192-1.828-.289-1.106-.241-1.587-.337C39.8,32.8,39.179,32.6,39.179,32.6Z" transform="translate(-32.3 -12.4)"/></g><g transform="translate(66.819 66.479)"><path class="a" d="M246.167,142.337l-.625-4.137-50.509,5.58a9.957,9.957,0,0,0-2.309-2.405,9.779,9.779,0,0,0-13.71,2.117,8.266,8.266,0,0,0-1.2,2.213l-10.2,1.106c-.048-.048-.1-.048-.144-.1a7.706,7.706,0,1,0-9.14,12.411,7.43,7.43,0,0,0,4.426,1.491,5.91,5.91,0,0,0,1.3-.1,7.748,7.748,0,0,0,5.051-3.031c.048-.1.1-.144.144-.241l9.861-1.924a8.9,8.9,0,0,0,1.924,1.876,9.858,9.858,0,0,0,13.71-2.117,9.976,9.976,0,0,0,1.539-3.127Zm-80.381,12.555a3.337,3.337,0,0,1-2.309,1.4,3.585,3.585,0,0,1-2.6-.625,3.337,3.337,0,0,1-1.395-2.309,3.585,3.585,0,0,1,.625-2.6,3.512,3.512,0,0,1,5.676,4.137Zm11.593-3.56-6.686,1.3a9.3,9.3,0,0,0-.289-1.972l6.831-.722v.144c.048.385.1.77.144,1.106A.09.09,0,0,0,177.379,151.332Zm6.253,2.453a5.369,5.369,0,0,1-1.491-1.636l-.048-.048a1.709,1.709,0,0,1-.192-.433,2.943,2.943,0,0,1-.241-.577,1.4,1.4,0,0,1-.1-.433l-.144-.577a3.174,3.174,0,0,1-.048-.673,4.4,4.4,0,0,1,.048-.77,3.247,3.247,0,0,1,.1-.673v-.048a6.383,6.383,0,0,1,.914-2.02,5.564,5.564,0,0,1,4.618-2.261,5.441,5.441,0,0,1,3.223,1.106,5.673,5.673,0,0,1,1.876,2.405.683.683,0,0,1,.1.289,5.078,5.078,0,0,1,.241.914v.241a3.641,3.641,0,0,1,.048.722v.385a5.538,5.538,0,0,1-1.058,2.838h0A5.575,5.575,0,0,1,183.632,153.786Z" transform="translate(-155.206 -138.2)"/></g><g transform="translate(68.644)"><path class="d" d="M182.667,4.714C173.094,4.81,159,.433,159,.433s.529,25.4,2.309,33.576c1.78,8.13,10.968,22.128,22.32,22.031,11.4-.1,20.492-14.191,22.128-22.368C207.44,25.447,207.537,0,207.537,0S192.047,4.666,182.667,4.714Zm-1.3,24.533a.293.293,0,0,1,.385,0,2.57,2.57,0,0,0,3.608-.048.272.272,0,0,1,.385.385,3.147,3.147,0,0,1-2.165.914,3.1,3.1,0,0,1-2.165-.866A.251.251,0,0,1,181.368,29.247ZM165.253,12.026c.433-.192.914-.385,1.491-.577q.794-.289,1.732-.577c.577-.192,1.2-.337,1.732-.481.577-.144,1.106-.241,1.539-.337.914-.192,1.539-.192,1.539-.241,0,0-.529.289-1.395.673-.433.192-.914.385-1.491.577q-.794.289-1.732.577c-.577.192-1.2.337-1.732.481-.577.144-1.106.241-1.539.337a8.27,8.27,0,0,1-1.539.192A13.173,13.173,0,0,1,165.253,12.026Zm4.377,9.861c-2.742.048-5-1.058-5-2.405s2.213-2.453,4.955-2.5,5,1.058,5,2.405C174.634,20.733,172.373,21.839,169.631,21.887ZM190.893,40.7H176.029a2.02,2.02,0,0,1,0-4.041h14.864a2.02,2.02,0,0,1,0,4.041Zm5.291-19.049c-2.742.048-5-1.058-5-2.405s2.213-2.453,4.955-2.5,5,1.058,5,2.405C201.187,20.492,198.926,21.6,196.184,21.647Zm4.089-9.476c-.481-.1-1.01-.192-1.539-.289L197,11.449c-.577-.144-1.154-.337-1.732-.529-.529-.192-1.058-.385-1.491-.529a13.177,13.177,0,0,1-1.395-.625s.625.048,1.539.192c.481.1,1.01.192,1.539.289l1.732.433c.577.144,1.154.337,1.732.529.529.192,1.058.385,1.491.529a13.177,13.177,0,0,1,1.395.625S201.187,12.315,200.273,12.17Z" transform="translate(-159)"/></g><g transform="translate(12.664 69.738)"><rect class="a" width="2.405" height="7.648" transform="matrix(0.09, -0.996, 0.996, 0.09, 0, 2.396)"/></g><g transform="translate(62.566 30.753)"><rect class="a" width="2.405" height="7.648" transform="translate(0 0.841) rotate(-20.457)"/></g><g transform="translate(119.608 28.387)"><rect class="a" width="7.648" height="2.405" transform="matrix(0.14, -0.99, 0.99, 0.14, 0, 7.574)"/></g><g transform="translate(165.308 69.782)"><rect class="a" width="9.284" height="2.405" transform="translate(0 3.365) rotate(-21.253)"/></g></g></svg>