<svg xmlns="http://www.w3.org/2000/svg" viewBox="0 0 21.405 21.4"><defs><style>.a{fill:#fff;}</style></defs><path class="a" d="M18.6,0H2.9A2.9,2.9,0,0,0,0,2.9V18.5a2.9,2.9,0,0,0,2.9,2.9H18.5a2.9,2.9,0,0,0,2.9-2.9V2.9A2.758,2.758,0,0,0,18.6,0Zm2.2,18.6a2.263,2.263,0,0,1-2.3,2.3H13.8V13.5h3.3c.1,0,.2,0,.2-.2V10H13.9V8.4c0-.5.3-.7.8-.7h2.6V4.2H14.6a3.936,3.936,0,0,0-2.1.6,4.282,4.282,0,0,0-1.9,3,12.1,12.1,0,0,0-.1,1.9v.2H8v3.3a.215.215,0,0,0,.2.2h2.4v7.4H2.9A2.263,2.263,0,0,1,.6,18.5V2.9A2.263,2.263,0,0,1,2.9.6H18.5a2.263,2.263,0,0,1,2.3,2.3Z"/></svg>