<svg xmlns="http://www.w3.org/2000/svg" viewBox="0 0 21.405 21.5"><defs><style>.a{fill:#fff;}</style></defs><path class="a" d="M16.8,6.2c-.1,0-.1.1-.2.1a4.234,4.234,0,0,1-1.2.4.367.367,0,0,1-.3-.1,2.259,2.259,0,0,0-2.8-.2,2.334,2.334,0,0,0-1,2v.4A6.33,6.33,0,0,1,6.6,6.3a2.706,2.706,0,0,0,.7,3.3,1.689,1.689,0,0,1-1-.3,2.016,2.016,0,0,0,.3,1.1,2.292,2.292,0,0,0,1.5,1.2c-.2,0-.3.1-.5.1H7.1a1.779,1.779,0,0,0,.8,1.1,2.106,2.106,0,0,0,1.3.5,4.483,4.483,0,0,1-3.3,1H6a9.172,9.172,0,0,0,2.3.9,6.236,6.236,0,0,0,3.3-.3,5.929,5.929,0,0,0,2-1.2,6.665,6.665,0,0,0,1.9-2.8,7.457,7.457,0,0,0,.4-2.6.1.1,0,0,1,.1-.1l.8-.8c.1-.1.2-.2.2-.3h0a2.663,2.663,0,0,1-1.2.3A1.758,1.758,0,0,0,16.8,6.2Z"/><path class="a" d="M18.6,21.5H2.9A2.9,2.9,0,0,1,0,18.6V2.9A2.9,2.9,0,0,1,2.9,0H18.5a2.9,2.9,0,0,1,2.9,2.9V18.5A2.786,2.786,0,0,1,18.6,21.5ZM2.9.7A2.263,2.263,0,0,0,.6,3V18.6a2.263,2.263,0,0,0,2.3,2.3H18.5a2.263,2.263,0,0,0,2.3-2.3V2.9A2.263,2.263,0,0,0,18.5.6H2.9Z"/></svg>