<svg xmlns="http://www.w3.org/2000/svg" viewBox="0 0 273 51.569"><defs><style>.a{fill:#1b2c53;}.b{fill:#bad331;}.c{fill:#dc2b26;}.d{fill:#fcc80a;}</style></defs><g transform="translate(0 0.1)"><g transform="translate(124.047 13.025)"><path class="a" d="M364.544,50a4.274,4.274,0,0,1,3.479,1.309,5.623,5.623,0,0,1,1.068,3.651v2.446a5.306,5.306,0,0,1-1.137,3.686,4.659,4.659,0,0,1-3.583,1.24h-2v8.026H360.1V50Zm-.172,10.3a2.56,2.56,0,0,0,1.895-.62,2.89,2.89,0,0,0,.62-2.1V54.892a3.325,3.325,0,0,0-.551-2.1,2.164,2.164,0,0,0-1.791-.689h-2.17v8.233h2Z" transform="translate(-360.1 -45.866)"/><path class="a" d="M396.147,50a4.477,4.477,0,0,1,3.479,1.206,4.974,4.974,0,0,1,1.068,3.445V56.3a5.219,5.219,0,0,1-.62,2.721,3.237,3.237,0,0,1-1.929,1.447,3.047,3.047,0,0,1,1.964,1.481,5.937,5.937,0,0,1,.586,2.756v3.169c0,.448.034.861.069,1.309a2.578,2.578,0,0,0,.344,1.137H398.8a2.9,2.9,0,0,1-.276-.93,8.391,8.391,0,0,1-.1-1.516v-3.2a3.028,3.028,0,0,0-.758-2.377,3.242,3.242,0,0,0-2.2-.655h-1.585v8.681H391.6V50Zm-.586,9.611a3.571,3.571,0,0,0,2.136-.551,2.611,2.611,0,0,0,.758-2.239V54.857a3.324,3.324,0,0,0-.551-2.1,2.138,2.138,0,0,0-1.826-.689h-2.2v7.51h1.688Z" transform="translate(-380.749 -45.866)"/><path class="a" d="M424.4,54.6a5.584,5.584,0,0,1,1.137-3.72,5.169,5.169,0,0,1,7.027,0,5.723,5.723,0,0,1,1.171,3.72V65.1a5.537,5.537,0,0,1-1.171,3.72,5.169,5.169,0,0,1-7.027,0A5.711,5.711,0,0,1,424.4,65.1Zm2.239,10.61a3.611,3.611,0,0,0,.586,2.17,2.159,2.159,0,0,0,1.826.758,2.117,2.117,0,0,0,1.826-.758,3.612,3.612,0,0,0,.586-2.17V54.461a3.612,3.612,0,0,0-.586-2.17,2.117,2.117,0,0,0-1.826-.758,2.159,2.159,0,0,0-1.826.758,3.389,3.389,0,0,0-.586,2.17Z" transform="translate(-402.25 -45.538)"/><path class="a" d="M465.21,70.324h-2.17l-3.376-16.191V70.359H457.7V50h3.169l3.341,16.259L467.449,50h3.169V70.359h-2.136V54Z" transform="translate(-424.079 -45.866)"/><path class="a" d="M509.034,59.025v2.032h-4.961v7.234h6.1v2.067H501.8V50h8.371v2.067h-6.1v6.958Z" transform="translate(-452.987 -45.866)"/><path class="a" d="M536.144,49.4a4.158,4.158,0,0,1,3.445,1.378,5.9,5.9,0,0,1,1.1,3.72v.551h-2.136v-.655A3.434,3.434,0,0,0,538,52.259a2.024,2.024,0,0,0-1.757-.758,1.984,1.984,0,0,0-1.757.758,3.5,3.5,0,0,0-.551,2.136,3.629,3.629,0,0,0,.517,1.964,7.623,7.623,0,0,0,1.275,1.55c.517.482,1.068.93,1.653,1.378a16.91,16.91,0,0,1,1.654,1.481,7.746,7.746,0,0,1,1.275,1.86,5.444,5.444,0,0,1,.517,2.446,5.9,5.9,0,0,1-1.1,3.72,4.186,4.186,0,0,1-3.479,1.378,4.07,4.07,0,0,1-3.445-1.378,5.9,5.9,0,0,1-1.1-3.72V63.9h2.136v1.275a3.429,3.429,0,0,0,.586,2.136,2.091,2.091,0,0,0,1.791.758A2.05,2.05,0,0,0,538,67.313a3.5,3.5,0,0,0,.586-2.136,3.629,3.629,0,0,0-.517-1.964,7.622,7.622,0,0,0-1.275-1.55c-.517-.482-1.033-.93-1.619-1.412a13.333,13.333,0,0,1-1.619-1.481,7.746,7.746,0,0,1-1.275-1.86,5.444,5.444,0,0,1-.517-2.446,5.769,5.769,0,0,1,1.1-3.72A3.755,3.755,0,0,1,536.144,49.4Z" transform="translate(-472.587 -45.473)"/><path class="a" d="M567.544,49.4a4.158,4.158,0,0,1,3.445,1.378,5.7,5.7,0,0,1,1.1,3.72v.551h-2.136v-.655a3.434,3.434,0,0,0-.551-2.136,2.024,2.024,0,0,0-1.757-.758,1.984,1.984,0,0,0-1.757.758,3.5,3.5,0,0,0-.551,2.136,3.629,3.629,0,0,0,.517,1.964,7.623,7.623,0,0,0,1.275,1.55c.517.482,1.068.93,1.653,1.378a16.9,16.9,0,0,1,1.654,1.481,7.745,7.745,0,0,1,1.275,1.86,5.444,5.444,0,0,1,.517,2.446,5.9,5.9,0,0,1-1.1,3.72,4.186,4.186,0,0,1-3.479,1.378,4.07,4.07,0,0,1-3.445-1.378,5.9,5.9,0,0,1-1.1-3.72V63.9h2.136v1.275a3.429,3.429,0,0,0,.586,2.136,2.091,2.091,0,0,0,1.791.758,2.05,2.05,0,0,0,1.791-.758,3.5,3.5,0,0,0,.586-2.136,3.629,3.629,0,0,0-.517-1.964,7.623,7.623,0,0,0-1.275-1.55c-.517-.482-1.033-.93-1.619-1.412a13.333,13.333,0,0,1-1.619-1.481,7.748,7.748,0,0,1-1.275-1.86,5.444,5.444,0,0,1-.517-2.446,5.769,5.769,0,0,1,1.1-3.72A3.673,3.673,0,0,1,567.544,49.4Z" transform="translate(-493.171 -45.473)"/><path class="a" d="M599.051,41.927a4.258,4.258,0,0,1,3.514,1.378,5.723,5.723,0,0,1,1.171,3.72V57.532a5.537,5.537,0,0,1-1.171,3.72,4.3,4.3,0,0,1-3.514,1.378,4.35,4.35,0,0,1-3.514-1.378,5.711,5.711,0,0,1-1.137-3.72V47.06a5.584,5.584,0,0,1,1.137-3.72A4.369,4.369,0,0,1,599.051,41.927Zm-1.516-.965h-1.964L598.052,38h2l2.515,2.928H600.6l-1.585-1.722Zm1.516,3.031a2.159,2.159,0,0,0-1.826.758,3.389,3.389,0,0,0-.586,2.17V57.67a3.611,3.611,0,0,0,.586,2.17,2.159,2.159,0,0,0,1.826.758,2.117,2.117,0,0,0,1.826-.758,3.611,3.611,0,0,0,.586-2.17V46.922a3.611,3.611,0,0,0-.586-2.17A2.167,2.167,0,0,0,599.051,43.994Z" transform="translate(-513.689 -38)"/><path class="a" d="M635.21,70.324h-2.17l-3.376-16.191V70.359H627.7V50h3.169l3.341,16.259L637.449,50h3.169V70.359h-2.136V54Z" transform="translate(-535.517 -45.866)"/><path class="a" d="M679.134,59.025v2.032h-4.961v7.234h6.1v2.067H671.9V50h8.371v2.067h-6.1v6.958Z" transform="translate(-564.491 -45.866)"/><path class="a" d="M703.655,70.359V52.067H699.9V50h9.749v2.067h-3.755V70.359Z" transform="translate(-582.846 -45.866)"/><path class="a" d="M737.147,50a4.476,4.476,0,0,1,3.479,1.206,4.974,4.974,0,0,1,1.068,3.445V56.3a5.219,5.219,0,0,1-.62,2.721,3.237,3.237,0,0,1-1.929,1.447,3.047,3.047,0,0,1,1.964,1.481,5.937,5.937,0,0,1,.586,2.756v3.169c0,.448.034.861.069,1.309a2.578,2.578,0,0,0,.344,1.137H739.8a2.9,2.9,0,0,1-.276-.93,8.388,8.388,0,0,1-.1-1.516v-3.2a3.028,3.028,0,0,0-.758-2.377,3.242,3.242,0,0,0-2.2-.655h-1.585v8.681H732.6V50Zm-.586,9.611a3.571,3.571,0,0,0,2.136-.551,2.61,2.61,0,0,0,.758-2.239V54.857a3.325,3.325,0,0,0-.551-2.1,2.194,2.194,0,0,0-1.826-.689h-2.2v7.51h1.688Z" transform="translate(-604.281 -45.866)"/><path class="a" d="M765.4,54.6a5.584,5.584,0,0,1,1.137-3.72,5.169,5.169,0,0,1,7.027,0,5.723,5.723,0,0,1,1.171,3.72V65.1a5.537,5.537,0,0,1-1.171,3.72,5.169,5.169,0,0,1-7.027,0A5.711,5.711,0,0,1,765.4,65.1Zm2.239,10.61a3.611,3.611,0,0,0,.586,2.17,2.159,2.159,0,0,0,1.826.758,2.117,2.117,0,0,0,1.826-.758,3.612,3.612,0,0,0,.586-2.17V54.461a3.611,3.611,0,0,0-.586-2.17,2.117,2.117,0,0,0-1.826-.758,2.159,2.159,0,0,0-1.826.758,3.389,3.389,0,0,0-.586,2.17Z" transform="translate(-625.782 -45.538)"/></g><g transform="translate(0 -0.1)"><g transform="translate(0 30.53)"><g transform="translate(100.219)"><path class="a" d="M297.291,105.639a2.088,2.088,0,0,1-2.1-2.1A20.375,20.375,0,0,0,291.3,91.825a2.1,2.1,0,0,1,3.445-2.411,24.519,24.519,0,0,1,4.65,14.089A2.14,2.14,0,0,1,297.291,105.639Z" transform="translate(-290.927 -88.527)"/></g><g transform="translate(0 1.453)"><path class="a" d="M2.1,108.4A2.088,2.088,0,0,1,0,106.3,23.977,23.977,0,0,1,3.617,93.762a2.109,2.109,0,0,1,3.617,2.17A20.048,20.048,0,0,0,4.2,106.3,2.11,2.11,0,0,1,2.1,108.4Z" transform="translate(0 -92.744)"/></g></g><g transform="translate(73.144 2.997)"><path class="b" d="M216.386,8.6s-3.72,13.883-4.03,18.636c-.31,4.685,2.48,13.745,8.681,15.5,6.2,1.722,13.366-4.478,15.536-8.681,2.2-4.237,6.27-18.016,6.27-18.016s-9.163.1-14.261-1.343C223.345,13.216,216.386,8.6,216.386,8.6Zm9.887,20.049a1.764,1.764,0,0,1-1.309.172,1.733,1.733,0,0,1-1.033-.827.154.154,0,1,1,.276-.138,1.455,1.455,0,0,0,1.964.551.166.166,0,0,1,.207.069A.164.164,0,0,1,226.273,28.649Zm11.506-6.821a4.724,4.724,0,0,1-.792-.344,5.888,5.888,0,0,1-.792-.413c-.276-.172-.586-.344-.9-.517s-.586-.379-.861-.551-.517-.379-.723-.517a4.664,4.664,0,0,1-.654-.586,4.723,4.723,0,0,1,.792.344,5.888,5.888,0,0,1,.792.413c.276.172.586.344.9.517s.586.379.861.551.517.379.723.517C237.5,21.552,237.778,21.828,237.778,21.828ZM233.266,26c-1.516-.413-2.549-1.378-2.342-2.1s1.585-1,3.1-.586,2.549,1.378,2.342,2.1C236.125,26.134,234.747,26.41,233.266,26Zm-15.019,3.376a1.055,1.055,0,0,1,1.412.379,6.886,6.886,0,0,0,9.37,2.618,1.034,1.034,0,0,1,1.033,1.791,8.963,8.963,0,0,1-6.821.827,8.845,8.845,0,0,1-5.374-4.237A.959.959,0,0,1,218.246,29.372Zm-1.791-9.542c.207-.723,1.585-1,3.1-.586s2.549,1.378,2.342,2.1-1.585,1-3.1.586S216.248,20.553,216.455,19.83Zm.62-3.824s.344-.069.861-.138a6.774,6.774,0,0,1,.9-.069,10.018,10.018,0,0,1,1.033-.034c.344,0,.689,0,1.033.034a7.274,7.274,0,0,1,.9.069,4.291,4.291,0,0,1,.861.138s-.344.069-.861.138a6.774,6.774,0,0,1-.9.069,10.019,10.019,0,0,1-1.033.034c-.344,0-.689,0-1.033-.034a7.274,7.274,0,0,1-.9-.069C217.42,16.075,217.075,16.006,217.075,16.006Z" transform="translate(-212.333 -8.6)"/></g><g transform="translate(4.444 3.479)"><path class="c" d="M12.9,17.234s3.962,13.814,6.132,18.051c2.136,4.2,9.163,10.541,15.4,8.819,6.2-1.688,9.163-10.713,8.853-15.433C43.008,23.951,39.39,10,39.39,10s-7.785,4.788-12.918,6.166C21.271,17.613,12.9,17.234,12.9,17.234ZM31.709,29.36a1.868,1.868,0,0,1-1.033.827,1.764,1.764,0,0,1-1.309-.172.154.154,0,1,1,.138-.276,1.464,1.464,0,0,0,1.964-.551.166.166,0,0,1,.207-.069A.212.212,0,0,1,31.709,29.36ZM37.634,16.1s-.241.276-.62.655a6.211,6.211,0,0,1-.689.62c-.241.207-.551.448-.827.689-.276.207-.586.448-.861.62-.276.207-.551.379-.758.517-.448.276-.792.448-.792.448s.241-.276.62-.655a6.212,6.212,0,0,1,.689-.62c.241-.207.551-.448.827-.689.276-.207.586-.448.861-.62.276-.207.551-.379.758-.517A6.6,6.6,0,0,1,37.634,16.1Zm-4.409,6.786c-.138-.448,1-1.137,2.515-1.55s2.825-.379,2.928.069c.138.448-1,1.137-2.515,1.55C34.671,23.366,33.362,23.331,33.224,22.884ZM27.988,35.526a5.638,5.638,0,0,1,7.716-2.1,1.034,1.034,0,0,1-1.033,1.791,3.581,3.581,0,0,0-4.892,1.343,1.034,1.034,0,1,1-1.791-1.033Zm-9.266-8.681c-.138-.448,1-1.137,2.515-1.55s2.825-.379,2.928.069c.138.448-1,1.137-2.515,1.55C20.169,27.327,18.859,27.293,18.722,26.845Zm-1.791-5.1a6.727,6.727,0,0,1,.93,0c.276,0,.586.034.93.034.344.034.689.069,1.068.1.344.034.723.1,1.068.172s.655.138.9.207c.517.138.9.241.9.241a6.727,6.727,0,0,1-.93,0c-.276,0-.586-.034-.93-.034-.344-.034-.689-.069-1.068-.1-.344-.034-.723-.1-1.068-.172s-.655-.138-.9-.207A5.258,5.258,0,0,1,16.93,21.747Z" transform="translate(-12.9 -10)"/></g><g transform="translate(38.858 38.616)"><path class="a" d="M165.575,114.411,165.2,112l-29.315,3.238a5.1,5.1,0,0,0-1.343-1.378,5.71,5.71,0,0,0-7.957,1.206,5.11,5.11,0,0,0-.689,1.275l-5.925.62-.069-.069a4.461,4.461,0,1,0-5.271,7.2,4.39,4.39,0,0,0,2.584.861,2.955,2.955,0,0,0,.758-.069,4.58,4.58,0,0,0,2.928-1.757c.034-.034.069-.1.1-.138l5.718-1.1a4.944,4.944,0,0,0,1.137,1.1,5.606,5.606,0,0,0,3.307,1.1,5.726,5.726,0,0,0,4.685-2.308,6.239,6.239,0,0,0,.9-1.791Zm-46.677,7.3a1.891,1.891,0,0,1-1.343.792,1.989,1.989,0,0,1-1.516-.379,1.891,1.891,0,0,1-.792-1.343,1.989,1.989,0,0,1,.379-1.516,2.04,2.04,0,0,1,2.825-.448A2.126,2.126,0,0,1,118.9,121.714Zm6.717-2.067-3.893.758a4.331,4.331,0,0,0-.172-1.137l3.962-.413v.069a4.308,4.308,0,0,0,.1.655C125.581,119.579,125.581,119.613,125.615,119.647Zm3.617,1.412a3.646,3.646,0,0,1-.861-.93l-.034-.034a2.031,2.031,0,0,0-.138-.276,1.439,1.439,0,0,1-.138-.344c-.034-.069-.034-.172-.069-.241a1.02,1.02,0,0,1-.069-.344,1.413,1.413,0,0,1-.034-.379,2.118,2.118,0,0,1,.034-.448,1.465,1.465,0,0,1,.069-.379v-.034a3.306,3.306,0,0,1,.551-1.171,3.205,3.205,0,0,1,5.615.689c.034.069.034.1.069.172a2.871,2.871,0,0,1,.138.517v.138c0,.138.034.276.034.413v.241a2.964,2.964,0,0,1-.62,1.654h0A3.2,3.2,0,0,1,129.232,121.06Z" transform="translate(-112.801 -112)"/></g><g transform="translate(39.856 0)"><path class="d" d="M129.445,2.69C123.9,2.725,115.7.176,115.7.176s.31,14.744,1.343,19.5c1.033,4.719,6.373,12.849,12.987,12.78s11.885-8.233,12.849-12.987C143.844,14.678,143.913-.1,143.913-.1S134.888,2.621,129.445,2.69Zm-.758,14.227a.129.129,0,0,1,.207,0,1.435,1.435,0,0,0,2.067-.034.146.146,0,0,1,.207.207,1.748,1.748,0,0,1-1.24.517,1.889,1.889,0,0,1-1.275-.517C128.618,17.09,128.618,16.986,128.687,16.917Zm-9.37-10.024c.241-.1.551-.207.861-.344.31-.1.655-.241,1-.344s.689-.207,1-.276.62-.138.9-.207c.517-.1.9-.138.9-.138a7.957,7.957,0,0,1-.827.379c-.241.1-.551.207-.861.344-.31.1-.655.241-1,.344s-.689.207-1,.276-.62.138-.9.207c-.517.1-.9.138-.9.138S118.835,7.134,119.317,6.893Zm2.549,5.753c-1.585,0-2.894-.62-2.928-1.412,0-.792,1.275-1.447,2.894-1.447,1.585,0,2.894.62,2.928,1.412C124.76,11.957,123.485,12.611,121.866,12.646Zm12.367,10.92h-8.612a1.171,1.171,0,0,1,0-2.342h8.612a1.171,1.171,0,1,1,0,2.342ZM137.3,12.508c-1.585,0-2.894-.62-2.928-1.412,0-.792,1.275-1.447,2.894-1.447,1.585,0,2.894.62,2.928,1.412C140.192,11.819,138.883,12.473,137.3,12.508ZM139.676,7c-.276-.034-.586-.1-.9-.172s-.689-.172-1.033-.241c-.344-.1-.689-.207-1-.31s-.62-.207-.861-.31a7.956,7.956,0,0,1-.827-.379s.379.034.9.1c.276.034.586.1.9.172s.689.172,1.033.241c.344.1.689.207,1,.31s.62.207.861.31a7.953,7.953,0,0,1,.827.379S140.192,7.065,139.676,7Z" transform="translate(-115.7 0.1)"/></g><g transform="translate(7.348 40.494)"><rect class="a" width="1.412" height="4.444" transform="matrix(0.09, -0.996, 0.996, 0.09, 0, 1.407)"/></g><g transform="translate(36.337 17.903)"><rect class="a" width="1.412" height="4.444" transform="translate(0 0.494) rotate(-20.457)"/></g><g transform="translate(69.431 16.504)"><rect class="a" width="4.444" height="1.412" transform="matrix(0.14, -0.99, 0.99, 0.14, 0, 4.4)"/></g><g transform="translate(95.979 40.575)"><rect class="a" width="5.408" height="1.412" transform="translate(0 1.961) rotate(-21.253)"/></g></g></g></svg>