<svg xmlns="http://www.w3.org/2000/svg" viewBox="0 0 21.405 21.5"><defs><style>.a{fill:#fff;}</style></defs><path class="a" d="M10.8,4.6h.9a5.847,5.847,0,0,1,1.9.4,5.557,5.557,0,0,1,2.7,2.1,5.63,5.63,0,0,1,1.2,3,.6.6,0,0,0,.1.4v.9a11.627,11.627,0,0,1-.4,1.8,6.356,6.356,0,0,1-1.4,2.2,4.508,4.508,0,0,1-1.4,1,6.026,6.026,0,0,1-2.9.8,7.111,7.111,0,0,1-3.2-.7H8.1a3.582,3.582,0,0,0-1.1.4,10.926,10.926,0,0,1-1.7.5c-.2.1-.4.1-.6.2h0a.1.1,0,0,1,.1-.1c.1-.4.3-.8.4-1.3.2-.6.4-1.3.6-1.9v-.2c-.1-.2-.2-.3-.2-.5A6.028,6.028,0,0,1,5,11.3a5.845,5.845,0,0,1,.2-1.9A6.963,6.963,0,0,1,6.3,7.1,3.969,3.969,0,0,1,8,5.4a6.311,6.311,0,0,1,2.3-.8ZM6.2,16c.1,0,.2,0,.2-.1a15.426,15.426,0,0,1,1.7-.5h.2c.2.1.5.3.7.4a5.333,5.333,0,0,0,2.8.4,5.787,5.787,0,0,0,2.1-.7,4.363,4.363,0,0,0,1.7-1.6,4.552,4.552,0,0,0,.8-1.9,3.944,3.944,0,0,0-.1-2.4,5.129,5.129,0,0,0-1.9-2.9,5.535,5.535,0,0,0-2.2-1,5.3,5.3,0,0,0-3.7.5A4.939,4.939,0,0,0,6.5,8c-.2.5-.4,1.1-.6,1.7a7.569,7.569,0,0,0-.1,1.5,3.529,3.529,0,0,0,.3,1.4A9.143,9.143,0,0,0,6.8,14v.1c-.2.5-.3,1-.5,1.5C6.3,15.7,6.2,15.9,6.2,16Z"/><path class="a" d="M9.2,8h.2c.1,0,.2,0,.2.1.1.2.2.3.2.5.1.2.2.5.3.7s0,.3-.1.4a1.072,1.072,0,0,1-.2.6.187.187,0,0,0,0,.3,4.1,4.1,0,0,0,1.6,1.6,1.689,1.689,0,0,0,.5.2c.1.1.2,0,.3-.1.2-.2.3-.4.5-.6.1-.1.2-.2.3-.1.4.2.9.4,1.3.6.1,0,.1.1.1.2a1.7,1.7,0,0,1-.1.7.781.781,0,0,1-.4.4,1.735,1.735,0,0,1-1.4.3c-.3-.1-.7-.2-1-.3a5.328,5.328,0,0,1-2-1.3,6.1,6.1,0,0,1-1.2-1.6A2.059,2.059,0,0,1,8,9.1a2.075,2.075,0,0,1,.6-1A1.486,1.486,0,0,1,9.2,8Z"/><path class="a" d="M18.6,21.5H2.9A2.9,2.9,0,0,1,0,18.6V2.9A2.9,2.9,0,0,1,2.9,0H18.5a2.9,2.9,0,0,1,2.9,2.9V18.5A2.786,2.786,0,0,1,18.6,21.5ZM2.9.7A2.263,2.263,0,0,0,.6,3V18.6a2.263,2.263,0,0,0,2.3,2.3H18.5a2.263,2.263,0,0,0,2.3-2.3V2.9A2.263,2.263,0,0,0,18.5.6H2.9Z"/></svg>