<svg xmlns="http://www.w3.org/2000/svg" viewBox="0 0 92.499 56.175"><defs><style>.a{fill:#fff;}</style></defs><g transform="translate(0 0)"><g transform="translate(0 40.859)"><path class="a" d="M2.76,202.9a2.655,2.655,0,0,1,2.161.813,3.492,3.492,0,0,1,.663,2.268V207.5a3.3,3.3,0,0,1-.706,2.289,2.893,2.893,0,0,1-2.225.77H1.412v4.984H0V202.9Zm-.107,6.4a1.59,1.59,0,0,0,1.177-.385,1.8,1.8,0,0,0,.385-1.3v-1.69a2.065,2.065,0,0,0-.342-1.3,1.344,1.344,0,0,0-1.112-.428H1.412V209.3Z" transform="translate(0 -200.354)"/><path class="a" d="M34.324,202.9a2.78,2.78,0,0,1,2.161.749,3.089,3.089,0,0,1,.663,2.139v1.027a3.241,3.241,0,0,1-.385,1.69,2.01,2.01,0,0,1-1.2.9,1.892,1.892,0,0,1,1.219.92,3.687,3.687,0,0,1,.364,1.711V214c0,.278.021.535.043.813a1.6,1.6,0,0,0,.214.706H35.971a1.8,1.8,0,0,1-.171-.578,5.209,5.209,0,0,1-.064-.941v-1.989a1.88,1.88,0,0,0-.471-1.476,2.013,2.013,0,0,0-1.369-.406h-.984v5.412H31.5V202.9Zm-.364,5.968a2.218,2.218,0,0,0,1.326-.342,1.621,1.621,0,0,0,.471-1.39v-1.219a2.065,2.065,0,0,0-.342-1.3,1.362,1.362,0,0,0-1.134-.428H32.912v4.663H33.96Z" transform="translate(-24.762 -200.354)"/><path class="a" d="M64.3,205.566a3.468,3.468,0,0,1,.706-2.31,3.21,3.21,0,0,1,4.364,0,3.554,3.554,0,0,1,.727,2.31v6.525a3.438,3.438,0,0,1-.727,2.31,3.21,3.21,0,0,1-4.364,0,3.546,3.546,0,0,1-.706-2.31Zm1.39,6.61a2.243,2.243,0,0,0,.364,1.348,1.341,1.341,0,0,0,1.134.471,1.315,1.315,0,0,0,1.134-.471,2.243,2.243,0,0,0,.364-1.348V205.5a2.243,2.243,0,0,0-.364-1.348,1.315,1.315,0,0,0-1.134-.471,1.341,1.341,0,0,0-1.134.471,2.1,2.1,0,0,0-.364,1.348Z" transform="translate(-50.545 -199.961)"/><path class="a" d="M102.185,215.521h-1.369l-2.1-10.054v10.076H97.5V202.9h1.968l2.075,10.1,2.011-10.1h1.968v12.643H104.2V205.381Z" transform="translate(-76.643 -200.354)"/><path class="a" d="M146.192,208.5v1.262h-3.08v4.492H146.9v1.284h-5.2V202.9h5.2v1.284h-3.786V208.5Z" transform="translate(-111.388 -200.354)"/><path class="a" d="M174.36,202.3a2.582,2.582,0,0,1,2.139.856,3.666,3.666,0,0,1,.685,2.31v.342h-1.326V205.4a2.133,2.133,0,0,0-.342-1.326,1.257,1.257,0,0,0-1.091-.471,1.208,1.208,0,0,0-1.091.471,2.175,2.175,0,0,0-.342,1.326,2.253,2.253,0,0,0,.321,1.219,4.734,4.734,0,0,0,.792.963c.321.3.663.578,1.027.856a10.5,10.5,0,0,1,1.027.92,4.81,4.81,0,0,1,.792,1.155,3.38,3.38,0,0,1,.321,1.519,3.666,3.666,0,0,1-.685,2.31,2.6,2.6,0,0,1-2.161.856,2.527,2.527,0,0,1-2.139-.856,3.666,3.666,0,0,1-.685-2.31v-.727h1.326v.792a2.129,2.129,0,0,0,.364,1.326,1.3,1.3,0,0,0,1.112.471,1.273,1.273,0,0,0,1.112-.471,2.173,2.173,0,0,0,.364-1.326,2.253,2.253,0,0,0-.321-1.219,4.733,4.733,0,0,0-.792-.963c-.321-.3-.642-.578-1.005-.877a8.279,8.279,0,0,1-1.005-.92,4.81,4.81,0,0,1-.792-1.155,3.38,3.38,0,0,1-.321-1.519,3.583,3.583,0,0,1,.685-2.31A2.388,2.388,0,0,1,174.36,202.3Z" transform="translate(-134.891 -199.883)"/><path class="a" d="M205.76,202.3a2.582,2.582,0,0,1,2.139.856,3.666,3.666,0,0,1,.685,2.31v.342h-1.326V205.4a2.133,2.133,0,0,0-.342-1.326,1.257,1.257,0,0,0-1.091-.471,1.208,1.208,0,0,0-1.091.471,2.175,2.175,0,0,0-.342,1.326,2.254,2.254,0,0,0,.321,1.219,4.734,4.734,0,0,0,.792.963c.321.3.663.578,1.027.856a10.5,10.5,0,0,1,1.027.92,4.811,4.811,0,0,1,.792,1.155,3.381,3.381,0,0,1,.321,1.519,3.665,3.665,0,0,1-.685,2.31,2.6,2.6,0,0,1-2.161.856,2.528,2.528,0,0,1-2.139-.856,3.666,3.666,0,0,1-.685-2.31v-.727h1.326v.792a2.129,2.129,0,0,0,.364,1.326,1.3,1.3,0,0,0,1.112.471,1.273,1.273,0,0,0,1.112-.471,2.173,2.173,0,0,0,.364-1.326,2.254,2.254,0,0,0-.321-1.219,4.734,4.734,0,0,0-.792-.963c-.321-.3-.642-.578-1.005-.877a8.278,8.278,0,0,1-1.005-.92,4.811,4.811,0,0,1-.792-1.155,3.381,3.381,0,0,1-.321-1.519,3.583,3.583,0,0,1,.685-2.31A2.335,2.335,0,0,1,205.76,202.3Z" transform="translate(-159.574 -199.883)"/><path class="a" d="M237.188,193.417a2.645,2.645,0,0,1,2.182.856,3.554,3.554,0,0,1,.727,2.31v6.525a3.438,3.438,0,0,1-.727,2.31,3.21,3.21,0,0,1-4.364,0,3.546,3.546,0,0,1-.706-2.31v-6.525a3.468,3.468,0,0,1,.706-2.31A2.771,2.771,0,0,1,237.188,193.417Zm-.941-.6h-1.219L236.589,191h1.241l1.562,1.818h-1.219l-.984-1.07Zm.941,1.883a1.341,1.341,0,0,0-1.134.471,2.1,2.1,0,0,0-.364,1.348v6.674a2.243,2.243,0,0,0,.364,1.348,1.341,1.341,0,0,0,1.134.471,1.315,1.315,0,0,0,1.134-.471,2.243,2.243,0,0,0,.364-1.348v-6.674a2.243,2.243,0,0,0-.364-1.348A1.346,1.346,0,0,0,237.188,194.7Z" transform="translate(-184.179 -191)"/><path class="a" d="M272.263,215.521h-1.348l-2.1-10.054v10.076H267.6V202.9h1.968l2.075,10.1,2.011-10.1h1.968v12.643H274.3V205.381Z" transform="translate(-210.355 -200.354)"/><path class="a" d="M316.292,208.5v1.262h-3.08v4.492H317v1.284h-5.2V202.9H317v1.284h-3.786V208.5Z" transform="translate(-245.1 -200.354)"/><path class="a" d="M342.132,215.543V204.184H339.8V202.9h6.054v1.284h-2.332v11.359Z" transform="translate(-267.11 -200.354)"/><path class="a" d="M375.324,202.9a2.78,2.78,0,0,1,2.161.749,3.089,3.089,0,0,1,.663,2.139v1.027a3.241,3.241,0,0,1-.385,1.69,2.01,2.01,0,0,1-1.2.9,1.892,1.892,0,0,1,1.219.92,3.687,3.687,0,0,1,.364,1.711V214c0,.278.021.535.043.813a1.6,1.6,0,0,0,.214.706h-1.433a1.8,1.8,0,0,1-.171-.578,5.209,5.209,0,0,1-.064-.941v-1.989a1.88,1.88,0,0,0-.471-1.476,2.013,2.013,0,0,0-1.369-.406h-.984v5.412H372.5V202.9Zm-.364,5.968a2.218,2.218,0,0,0,1.326-.342,1.621,1.621,0,0,0,.471-1.39v-1.219a2.064,2.064,0,0,0-.342-1.3,1.362,1.362,0,0,0-1.134-.428h-1.369v4.663h1.048Z" transform="translate(-292.815 -200.354)"/><path class="a" d="M405.3,205.566a3.468,3.468,0,0,1,.706-2.31,3.21,3.21,0,0,1,4.364,0,3.554,3.554,0,0,1,.727,2.31v6.525a3.439,3.439,0,0,1-.727,2.31,3.21,3.21,0,0,1-4.364,0,3.546,3.546,0,0,1-.706-2.31Zm1.391,6.61a2.243,2.243,0,0,0,.364,1.348,1.341,1.341,0,0,0,1.134.471,1.315,1.315,0,0,0,1.134-.471,2.243,2.243,0,0,0,.364-1.348V205.5a2.243,2.243,0,0,0-.364-1.348,1.315,1.315,0,0,0-1.134-.471,1.341,1.341,0,0,0-1.134.471,2.1,2.1,0,0,0-.364,1.348Z" transform="translate(-318.598 -199.961)"/></g><g transform="translate(3.487)"><g transform="translate(0 23.38)"><g transform="translate(76.744)"><path class="a" d="M379.916,122.365a1.616,1.616,0,0,1-1.6-1.6,15.606,15.606,0,0,0-2.973-8.963,1.587,1.587,0,0,1,.406-2.225,1.606,1.606,0,0,1,2.225.406,18.715,18.715,0,0,1,3.551,10.782A1.589,1.589,0,0,1,379.916,122.365Z" transform="translate(-375.05 -109.293)"/></g><g transform="translate(0 1.091)"><path class="a" d="M17.9,126.373a1.616,1.616,0,0,1-1.6-1.6,18.466,18.466,0,0,1,2.781-9.605,1.6,1.6,0,1,1,2.738,1.669,15.2,15.2,0,0,0-2.31,7.936A1.589,1.589,0,0,1,17.9,126.373Z" transform="translate(-16.3 -114.392)"/></g></g><g transform="translate(56.026 2.268)"><path class="a" d="M281.3,10.6s-2.845,10.632-3.08,14.268c-.257,3.594,1.883,10.525,6.632,11.851s10.225-3.444,11.894-6.632c1.69-3.23,4.792-13.8,4.792-13.8s-7,.064-10.91-1.027C286.653,14.13,281.3,10.6,281.3,10.6Zm7.573,15.359a1.392,1.392,0,0,1-1.005.128,1.266,1.266,0,0,1-.792-.62c-.021-.064-.021-.128.043-.15s.128-.021.15.043a1.114,1.114,0,0,0,1.5.428c.064-.021.128-.021.15.043C288.963,25.853,288.942,25.938,288.878,25.959Zm8.814-5.241a6.3,6.3,0,0,1-.62-.257c-.171-.086-.385-.193-.6-.321s-.449-.257-.685-.385c-.235-.15-.449-.278-.663-.428s-.385-.278-.556-.406c-.321-.257-.513-.428-.513-.428a6.293,6.293,0,0,1,.62.257c.171.086.385.193.6.321s.449.257.685.385c.235.15.449.278.663.428s.385.278.556.406A4.847,4.847,0,0,1,297.691,20.718Zm-3.465,3.187c-1.155-.321-1.947-1.048-1.8-1.6s1.219-.77,2.375-.449,1.947,1.048,1.8,1.6C296.429,24.034,295.381,24.227,294.226,23.906Zm-11.509,2.61a.777.777,0,0,1,1.07.3,5.269,5.269,0,0,0,7.188,2.011.785.785,0,1,1,.77,1.369,6.9,6.9,0,0,1-5.22.62,6.8,6.8,0,0,1-4.129-3.23A.823.823,0,0,1,282.717,26.516ZM281.348,19.2c.15-.556,1.219-.77,2.375-.449s1.947,1.048,1.8,1.6-1.219.77-2.375.449S281.176,19.756,281.348,19.2Zm.492-2.931a5.308,5.308,0,0,1,.663-.107c.193-.021.428-.043.685-.064s.513-.021.792-.021c.257,0,.535,0,.792.021a6.16,6.16,0,0,1,.685.043c.406.043.663.086.663.086a5.307,5.307,0,0,1-.663.107c-.193.021-.428.043-.685.064s-.513.021-.792.021c-.257,0-.535,0-.792-.021a6.161,6.161,0,0,1-.685-.043A4.33,4.33,0,0,1,281.84,16.269Z" transform="translate(-278.204 -10.6)"/></g><g transform="translate(3.423 2.653)"><path class="a" d="M32.3,17.941s3.038,10.568,4.685,13.819c1.626,3.209,7.038,8.065,11.787,6.76,4.77-1.3,7.017-8.215,6.8-11.808C55.361,23.075,52.58,12.4,52.58,12.4s-5.968,3.658-9.883,4.728C38.7,18.219,32.3,17.941,32.3,17.941ZM46.7,27.2a1.266,1.266,0,0,1-.792.62A1.292,1.292,0,0,1,44.9,27.7c-.064-.021-.064-.107-.043-.15.021-.064.107-.064.15-.043a1.107,1.107,0,0,0,1.5-.406c.021-.064.107-.064.15-.043A.1.1,0,0,1,46.7,27.2Zm4.535-10.161a5.427,5.427,0,0,1-.492.513,6.332,6.332,0,0,1-.535.492c-.193.171-.406.342-.62.513s-.449.342-.663.492-.406.278-.6.406c-.364.214-.6.342-.6.342a5.427,5.427,0,0,1,.492-.513,6.332,6.332,0,0,1,.535-.492c.193-.171.406-.342.62-.513s.449-.342.663-.492.406-.278.6-.406C50.975,17.17,51.232,17.042,51.232,17.042Zm-3.38,5.22c-.086-.342.77-.877,1.925-1.177,1.155-.321,2.161-.3,2.246.043s-.77.877-1.925,1.177C48.964,22.6,47.938,22.6,47.852,22.262ZM43.83,31.931A4.268,4.268,0,0,1,46.462,29.9a4.421,4.421,0,0,1,3.294.406.785.785,0,1,1-.77,1.369,2.761,2.761,0,0,0-2.1-.257A2.8,2.8,0,0,0,45.221,32.7a.722.722,0,0,1-.471.364.752.752,0,0,1-.6-.086A.76.76,0,0,1,43.83,31.931ZM36.75,25.278c-.086-.342.77-.877,1.925-1.177,1.155-.321,2.161-.3,2.246.043s-.77.877-1.925,1.177C37.862,25.642,36.856,25.62,36.75,25.278Zm-1.39-3.893a6.167,6.167,0,0,1,.706,0c.214,0,.449.021.706.043s.535.043.813.086.556.086.813.128.492.107.706.15c.406.107.685.193.685.193a6.167,6.167,0,0,1-.706,0c-.214,0-.449-.021-.706-.043s-.535-.043-.813-.086-.556-.086-.813-.128-.492-.107-.706-.15C35.637,21.47,35.359,21.385,35.359,21.385Z" transform="translate(-32.3 -12.4)"/></g><g transform="translate(29.715 29.564)"><path class="a" d="M195.657,140.04l-.278-1.84-22.462,2.481a4.428,4.428,0,0,0-1.027-1.07,4.349,4.349,0,0,0-6.1.941,3.676,3.676,0,0,0-.535.984l-4.535.492c-.021-.021-.043-.021-.064-.043a3.427,3.427,0,0,0-4.064,5.519,3.3,3.3,0,0,0,1.968.663,2.628,2.628,0,0,0,.578-.043,3.445,3.445,0,0,0,2.246-1.348c.021-.043.043-.064.064-.107l4.385-.856a3.957,3.957,0,0,0,.856.834,4.384,4.384,0,0,0,6.1-.941,4.436,4.436,0,0,0,.685-1.39Zm-35.746,5.583a1.484,1.484,0,0,1-1.027.62,1.594,1.594,0,0,1-1.155-.278,1.484,1.484,0,0,1-.62-1.027,1.594,1.594,0,0,1,.278-1.155,1.562,1.562,0,1,1,2.524,1.84Zm5.155-1.583-2.973.578a4.136,4.136,0,0,0-.128-.877L165,143.42v.064c.021.171.043.342.064.492A.04.04,0,0,0,165.066,144.04Zm2.781,1.091a2.388,2.388,0,0,1-.663-.727l-.021-.021a.759.759,0,0,1-.086-.193,1.308,1.308,0,0,1-.107-.257.625.625,0,0,1-.043-.193l-.064-.257a1.412,1.412,0,0,1-.021-.3,1.957,1.957,0,0,1,.021-.342,1.445,1.445,0,0,1,.043-.3v-.021a2.838,2.838,0,0,1,.406-.9,2.474,2.474,0,0,1,2.054-1.005,2.42,2.42,0,0,1,1.433.492,2.523,2.523,0,0,1,.834,1.07.3.3,0,0,1,.043.128,2.256,2.256,0,0,1,.107.406v.107a1.619,1.619,0,0,1,.021.321v.171a2.463,2.463,0,0,1-.471,1.262h0A2.479,2.479,0,0,1,167.847,145.131Z" transform="translate(-155.206 -138.2)"/></g><g transform="translate(30.526)"><path class="a" d="M169.525,2.1C165.268,2.139,159,.193,159,.193s.235,11.295,1.027,14.932c.791,3.615,4.877,9.84,9.926,9.8,5.07-.043,9.113-6.311,9.84-9.947.749-3.658.792-14.974.792-14.974S173.7,2.075,169.525,2.1Zm-.578,10.91a.13.13,0,0,1,.171,0,1.143,1.143,0,0,0,1.6-.021.121.121,0,0,1,.171.171,1.4,1.4,0,0,1-.963.406,1.377,1.377,0,0,1-.963-.385A.111.111,0,0,1,168.947,13.006Zm-7.166-7.658c.193-.086.406-.171.663-.257q.353-.128.77-.257c.257-.086.535-.15.77-.214.257-.064.492-.107.685-.15.406-.086.685-.086.685-.107,0,0-.235.128-.62.3-.193.086-.406.171-.663.257q-.353.128-.77.257c-.257.086-.535.15-.77.214-.257.064-.492.107-.685.15a3.678,3.678,0,0,1-.685.086A5.86,5.86,0,0,1,161.781,5.348Zm1.947,4.385c-1.219.021-2.225-.471-2.225-1.07s.984-1.091,2.2-1.112,2.225.471,2.225,1.07C165.952,9.22,164.947,9.712,163.728,9.733Zm9.455,8.364h-6.61a.9.9,0,1,1,0-1.8h6.61a.9.9,0,0,1,0,1.8Zm2.353-8.471c-1.219.021-2.225-.471-2.225-1.07s.984-1.091,2.2-1.112,2.225.471,2.225,1.07C177.761,9.113,176.755,9.605,175.536,9.626Zm1.818-4.214c-.214-.043-.449-.086-.685-.128l-.77-.193c-.257-.064-.513-.15-.77-.235-.235-.086-.471-.171-.663-.235a5.859,5.859,0,0,1-.62-.278s.278.021.685.086c.214.043.449.086.685.128l.77.193c.257.064.513.15.77.235.235.086.471.171.663.235a5.859,5.859,0,0,1,.62.278S177.761,5.476,177.354,5.412Z" transform="translate(-159)"/></g><g transform="translate(5.632 31.013)"><rect class="a" width="1.07" height="3.401" transform="matrix(0.09, -0.996, 0.996, 0.09, 0, 1.065)"/></g><g transform="translate(27.824 13.676)"><rect class="a" width="1.07" height="3.401" transform="translate(0 0.374) rotate(-20.457)"/></g><g transform="translate(53.191 12.624)"><rect class="a" width="3.401" height="1.07" transform="matrix(0.14, -0.99, 0.99, 0.14, 0, 3.368)"/></g><g transform="translate(73.513 31.032)"><rect class="a" width="4.129" height="1.07" transform="translate(0 1.497) rotate(-21.253)"/></g></g></g></svg>