<svg xmlns="http://www.w3.org/2000/svg" viewBox="0 0 116.6 63"><defs><style>.a{fill:#bbcdb2;}.b{fill:#dc2e27;}.c{fill:#ffdb79;}</style></defs><g transform="translate(-2575 -403)"><g transform="translate(2575 403)"><path class="a" d="M94.6,39.7l-4.7-.5c.1-1.1.2-2.3.2-3.5A30.931,30.931,0,0,0,79.4,12.3,17.411,17.411,0,0,1,78,11.1l2.9-3.7a20.948,20.948,0,0,1,1.7,1.4,35.768,35.768,0,0,1,12.3,27C94.8,37,94.8,38.4,94.6,39.7Z"/><path class="b" d="M21.6,39.7c-.1-1.3-.2-2.7-.2-4.1a38.246,38.246,0,0,1,9.3-24.9,37.767,37.767,0,0,1,5.8-5.5l5.7,7.5A26.27,26.27,0,0,0,37.7,17a28.529,28.529,0,0,0-7,18.7c0,1,.1,2.1.2,3.1Z"/><path class="c" d="M74.5,8.8A30.237,30.237,0,0,0,59.2,4.7,31.088,31.088,0,0,0,44,8.7L41.7,4.6a35.634,35.634,0,0,1,35.2.1Z"/><path class="b" d="M60.1,23.1h-.4a4.711,4.711,0,0,0-1.7.4L39,28.1l19,4.6a4.711,4.711,0,0,0,1.7.4h.4a5,5,0,0,0,0-10Z"/></g><g transform="translate(2575 403)"><path class="b" d="M9.9,58.8H7.2L2.7,52v6.9H0V47.7H2.7l4.5,6.9V47.7H9.9Z"/><path class="b" d="M16.9,50.4A3.179,3.179,0,0,1,18,51.6V50h2.7v8.8H18V57.2a2.545,2.545,0,0,1-1.1,1.2,3.371,3.371,0,0,1-1.7.5,4.552,4.552,0,0,1-2-.5,3.705,3.705,0,0,1-1.4-1.6,4.709,4.709,0,0,1-.5-2.4,6.042,6.042,0,0,1,.5-2.4,3.638,3.638,0,0,1,1.4-1.6,3.323,3.323,0,0,1,2-.5A3.371,3.371,0,0,1,16.9,50.4Zm-1.3-3.5.6.3a1.69,1.69,0,0,0,.5.2c.1,0,.2.1.4.1.4,0,.6-.2.7-.7h1.4c-.3,1.6-1,2.3-2.1,2.3a1.7,1.7,0,0,1-.7-.1,4.875,4.875,0,0,0-.7-.3c-.2-.1-.3-.2-.5-.2-.1,0-.2-.1-.4-.1-.4,0-.6.2-.7.7H12.7q.45-2.4,2.1-2.4A4.5,4.5,0,0,0,15.6,46.9Zm-1,5.9a2.066,2.066,0,0,0-.5,1.6,2.544,2.544,0,0,0,.5,1.6,1.933,1.933,0,0,0,2.8,0,2.066,2.066,0,0,0,.5-1.6,2.544,2.544,0,0,0-.5-1.6,1.816,1.816,0,0,0-1.4-.6A2.986,2.986,0,0,0,14.6,52.8Z"/><path class="b" d="M29,50.4A4.1,4.1,0,0,1,30.6,52a5.1,5.1,0,0,1,0,4.8A4.1,4.1,0,0,1,29,58.4a4.558,4.558,0,0,1-2.3.5,6.042,6.042,0,0,1-2.4-.5,3.539,3.539,0,0,1-1.6-1.6,5.1,5.1,0,0,1,0-4.8,4.1,4.1,0,0,1,1.6-1.6,4.709,4.709,0,0,1,2.4-.5A5.932,5.932,0,0,1,29,50.4Zm-3.7,2.4a2.066,2.066,0,0,0-.5,1.6,2.544,2.544,0,0,0,.5,1.6,1.708,1.708,0,0,0,2.6,0,2.066,2.066,0,0,0,.5-1.6,2.544,2.544,0,0,0-.5-1.6,1.612,1.612,0,0,0-1.3-.6A1.76,1.76,0,0,0,25.3,52.8Z"/><path class="b" d="M44.4,48.7a5.428,5.428,0,0,1,1.8,3H43.3a2.335,2.335,0,0,0-1-1.2,2.726,2.726,0,0,0-1.6-.4,2.323,2.323,0,0,0-1.9.9,3.506,3.506,0,0,0-.7,2.3,3.334,3.334,0,0,0,.7,2.3,2.323,2.323,0,0,0,1.9.9,2.587,2.587,0,0,0,2.6-1.6h2.9A5.047,5.047,0,0,1,40.9,59a5.664,5.664,0,0,1-2.9-.7,5.2,5.2,0,0,1-1.9-2,6.981,6.981,0,0,1-.7-3,5.792,5.792,0,0,1,.7-3,4.592,4.592,0,0,1,1.9-2,5.426,5.426,0,0,1,2.9-.7A4.631,4.631,0,0,1,44.4,48.7Z"/><path class="b" d="M56.5,50v8.8H53.8V57.2a3.179,3.179,0,0,1-1.1,1.2,3.371,3.371,0,0,1-1.7.5,2.965,2.965,0,0,1-2.4-1,4.1,4.1,0,0,1-.9-2.8V50h2.7v4.8a1.978,1.978,0,0,0,.5,1.4,1.727,1.727,0,0,0,1.3.5,1.9,1.9,0,0,0,1.3-.5,2.07,2.07,0,0,0,.5-1.5V50Z"/><path class="b" d="M72.3,50.9a4.1,4.1,0,0,1,.9,2.8v5.1H70.5V54a1.727,1.727,0,0,0-.5-1.3,1.656,1.656,0,0,0-1.2-.5,1.9,1.9,0,0,0-1.3.5,1.978,1.978,0,0,0-.5,1.4v4.7H64.3V54a1.7,1.7,0,0,0-.4-1.3,1.656,1.656,0,0,0-1.2-.5,1.9,1.9,0,0,0-1.3.5,1.978,1.978,0,0,0-.5,1.4v4.7H58.2V50h2.7v1.5A2.545,2.545,0,0,1,62,50.3a3.064,3.064,0,0,1,1.7-.4,3.453,3.453,0,0,1,1.8.5,3.745,3.745,0,0,1,1.2,1.3A3.25,3.25,0,0,1,68,50.4a3.453,3.453,0,0,1,1.8-.5A3.04,3.04,0,0,1,72.3,50.9Z"/><path class="b" d="M82.5,50.4A4.389,4.389,0,0,1,83.9,52a6.01,6.01,0,0,1,0,4.8,3.638,3.638,0,0,1-1.4,1.6,3.323,3.323,0,0,1-2,.5,2.86,2.86,0,0,1-1.7-.5,3.179,3.179,0,0,1-1.1-1.2V63H75V50h2.7v1.6a2.545,2.545,0,0,1,1.1-1.2,3.371,3.371,0,0,1,1.7-.5A4.228,4.228,0,0,1,82.5,50.4Zm-4.2,2.4a2.066,2.066,0,0,0-.5,1.6,2.544,2.544,0,0,0,.5,1.6,1.933,1.933,0,0,0,2.8,0,2.066,2.066,0,0,0,.5-1.6,2.544,2.544,0,0,0-.5-1.6,1.816,1.816,0,0,0-1.4-.6A2.986,2.986,0,0,0,78.3,52.8Z"/><path class="b" d="M89.8,50.4a3.371,3.371,0,0,1,1.7-.5v2.9h-.8a2.86,2.86,0,0,0-1.7.5,1.755,1.755,0,0,0-.6,1.5v4H85.7V50h2.7v1.7A4.269,4.269,0,0,1,89.8,50.4Z"/><path class="b" d="M92.9,46.5a2,2,0,0,1,2.4,0,1.45,1.45,0,0,1,0,2,2,2,0,0,1-2.4,0,1.284,1.284,0,0,1-.4-1A1.022,1.022,0,0,1,92.9,46.5ZM95.4,50v8.8H92.7V50Z"/><path class="b" d="M102.3,50.4a3.179,3.179,0,0,1,1.1,1.2V47.1h2.7V58.8h-2.7V57.2a2.545,2.545,0,0,1-1.1,1.2,3.371,3.371,0,0,1-1.7.5,4.552,4.552,0,0,1-2-.5,3.705,3.705,0,0,1-1.4-1.6,4.709,4.709,0,0,1-.5-2.4,6.042,6.042,0,0,1,.5-2.4,3.638,3.638,0,0,1,1.4-1.6,3.323,3.323,0,0,1,2-.5A3.1,3.1,0,0,1,102.3,50.4ZM100,52.8a2.066,2.066,0,0,0-.5,1.6A2.544,2.544,0,0,0,100,56a1.933,1.933,0,0,0,2.8,0,2.066,2.066,0,0,0,.5-1.6,2.544,2.544,0,0,0-.5-1.6,1.816,1.816,0,0,0-1.4-.6A3.506,3.506,0,0,0,100,52.8Z"/><path class="b" d="M114.4,50.4A4.1,4.1,0,0,1,116,52a5.1,5.1,0,0,1,0,4.8,4.1,4.1,0,0,1-1.6,1.6,4.558,4.558,0,0,1-2.3.5,6.042,6.042,0,0,1-2.4-.5,3.539,3.539,0,0,1-1.6-1.6,5.1,5.1,0,0,1,0-4.8,4.1,4.1,0,0,1,1.6-1.6,4.709,4.709,0,0,1,2.4-.5A5.932,5.932,0,0,1,114.4,50.4Zm-3.6,2.4a2.066,2.066,0,0,0-.5,1.6,2.544,2.544,0,0,0,.5,1.6,1.708,1.708,0,0,0,2.6,0,2.066,2.066,0,0,0,.5-1.6,2.544,2.544,0,0,0-.5-1.6,1.612,1.612,0,0,0-1.3-.6A1.486,1.486,0,0,0,110.8,52.8Z"/></g></g></svg>