<svg xmlns="http://www.w3.org/2000/svg" viewBox="0 0 124.4 60.9"><defs><style>.a{fill:#ef9198;}.b{fill:#fdc115;}.c{fill:#bbcdb2;}</style></defs><g transform="translate(-2427 -384)"><g transform="translate(2427 384)"><path class="a" d="M26.5,41.8c-.1-1.3-.2-2.6-.2-3.8A35.6,35.6,0,0,1,35,14.7a33.281,33.281,0,0,1,5.5-5.1l2.8,3.8a28.523,28.523,0,0,0-4.7,4.5A30.275,30.275,0,0,0,31,38c0,1.1.1,2.2.2,3.3Z"/><path class="b" d="M76,13.2A28.039,28.039,0,0,0,61.9,9.5a28.436,28.436,0,0,0-14,3.7L43.3,5A36.524,36.524,0,0,1,61.9,0,37.521,37.521,0,0,1,80.7,5Z"/><path class="c" d="M97.4,42l-4.7-.5c.1-1.1.2-2.3.2-3.5A30.931,30.931,0,0,0,82.2,14.6a17.411,17.411,0,0,1-1.4-1.2l2.9-3.7a20.948,20.948,0,0,1,1.7,1.4,35.768,35.768,0,0,1,12.3,27C97.6,39.4,97.6,40.7,97.4,42Z"/><path class="b" d="M67,31.8h0a9.512,9.512,0,0,0-.4-1.8L62,11,57.4,30a4.711,4.711,0,0,0-.4,1.7v.1h0v.3a5,5,0,0,0,10,0v-.3Z"/></g><g transform="translate(2427 384)"><path class="b" d="M2.7,51.8v2.3H6.5v2H2.7v2.5H7v2.2H0V49.6H7v2.1H2.7Z"/><path class="b" d="M22.5,52.9a4.1,4.1,0,0,1,.9,2.8v5.1H20.7V56a1.728,1.728,0,0,0-.5-1.3,1.656,1.656,0,0,0-1.2-.5,1.9,1.9,0,0,0-1.3.5,1.978,1.978,0,0,0-.5,1.4v4.7H14.5V56a1.7,1.7,0,0,0-.4-1.3,1.656,1.656,0,0,0-1.2-.5,1.9,1.9,0,0,0-1.3.5,1.978,1.978,0,0,0-.5,1.4v4.7H8.5V52h2.7v1.5a2.545,2.545,0,0,1,1.1-1.2,3.064,3.064,0,0,1,1.7-.4,3.453,3.453,0,0,1,1.8.5A3.745,3.745,0,0,1,17,53.7a3.25,3.25,0,0,1,1.3-1.3,3.453,3.453,0,0,1,1.8-.5A3.25,3.25,0,0,1,22.5,52.9Z"/><path class="b" d="M35.3,58.7H31.1l-.7,2H27.6l4.1-11.1h3.1l4.1,11.1H36Zm-.7-2-1.4-4.1-1.4,4.1Z"/><path class="b" d="M47.9,52.9a4.1,4.1,0,0,1,.9,2.8v5.1H46.1V56a1.978,1.978,0,0,0-.5-1.4,1.656,1.656,0,0,0-1.2-.5,1.9,1.9,0,0,0-1.3.5,2.07,2.07,0,0,0-.5,1.5v4.7H39.9V52h2.7v1.6a3.179,3.179,0,0,1,1.1-1.2,3.453,3.453,0,0,1,1.8-.5A2.965,2.965,0,0,1,47.9,52.9Z"/><path class="b" d="M55.7,52.3a3.179,3.179,0,0,1,1.1,1.2V49h2.7V60.7H56.8V59.1a2.545,2.545,0,0,1-1.1,1.2,3.371,3.371,0,0,1-1.7.5,4.552,4.552,0,0,1-2-.5,3.705,3.705,0,0,1-1.4-1.6,4.709,4.709,0,0,1-.5-2.4,6.042,6.042,0,0,1,.5-2.4A3.638,3.638,0,0,1,52,52.3a3.323,3.323,0,0,1,2-.5A4.8,4.8,0,0,1,55.7,52.3Zm-2.3,2.5a2.066,2.066,0,0,0-.5,1.6,2.544,2.544,0,0,0,.5,1.6,1.933,1.933,0,0,0,2.8,0,2.066,2.066,0,0,0,.5-1.6,2.544,2.544,0,0,0-.5-1.6,1.933,1.933,0,0,0-2.8,0Z"/><path class="b" d="M66.4,52.3a3.179,3.179,0,0,1,1.1,1.2V52h2.7v8.8H67.5V59.2a2.545,2.545,0,0,1-1.1,1.2,3.371,3.371,0,0,1-1.7.5,4.552,4.552,0,0,1-2-.5,3.705,3.705,0,0,1-1.4-1.6,4.709,4.709,0,0,1-.5-2.4,6.042,6.042,0,0,1,.5-2.4,3.638,3.638,0,0,1,1.4-1.6,3.323,3.323,0,0,1,2-.5A3.287,3.287,0,0,1,66.4,52.3Zm-2.3,2.5a2.066,2.066,0,0,0-.5,1.6,2.544,2.544,0,0,0,.5,1.6,1.933,1.933,0,0,0,2.8,0,2.066,2.066,0,0,0,.5-1.6,2.544,2.544,0,0,0-.5-1.6,1.933,1.933,0,0,0-2.8,0Z"/><path class="b" d="M86,52.9a4.1,4.1,0,0,1,.9,2.8v5.1H84.2V56a1.727,1.727,0,0,0-.5-1.3,1.656,1.656,0,0,0-1.2-.5,1.9,1.9,0,0,0-1.3.5,1.978,1.978,0,0,0-.5,1.4v4.7H78V56a1.7,1.7,0,0,0-.4-1.3,1.656,1.656,0,0,0-1.2-.5,1.9,1.9,0,0,0-1.3.5,1.978,1.978,0,0,0-.5,1.4v4.7H72V52h2.7v1.5a2.545,2.545,0,0,1,1.1-1.2,3.064,3.064,0,0,1,1.7-.4,3.453,3.453,0,0,1,1.8.5,3.745,3.745,0,0,1,1.2,1.3,3.25,3.25,0,0,1,1.3-1.3,3.453,3.453,0,0,1,1.8-.5A3.1,3.1,0,0,1,86,52.9Z"/><path class="b" d="M97,56.9H90.9a1.813,1.813,0,0,0,.5,1.4,1.594,1.594,0,0,0,1.2.4,1.689,1.689,0,0,0,1-.3,1.374,1.374,0,0,0,.5-.8H97a3.805,3.805,0,0,1-.8,1.7,4.428,4.428,0,0,1-1.5,1.2,4.477,4.477,0,0,1-2,.4,5.555,5.555,0,0,1-2.3-.5,3.539,3.539,0,0,1-1.6-1.6,5.1,5.1,0,0,1,0-4.8,4.1,4.1,0,0,1,1.6-1.6,4.337,4.337,0,0,1,2.3-.5,5.555,5.555,0,0,1,2.3.5,3.607,3.607,0,0,1,1.5,1.5,3.983,3.983,0,0,1,.5,2.2A1.1,1.1,0,0,1,97,56.9Zm-3.1-2.5a2,2,0,0,0-2.4,0,2.261,2.261,0,0,0-.6,1.3h3.4A1.389,1.389,0,0,0,93.9,54.4Z"/><path class="b" d="M106.5,52.9a4.1,4.1,0,0,1,.9,2.8v5.1h-2.7V56a1.978,1.978,0,0,0-.5-1.4,1.656,1.656,0,0,0-1.2-.5,1.9,1.9,0,0,0-1.3.5,2.07,2.07,0,0,0-.5,1.5v4.7H98.5V52h2.7v1.6a3.179,3.179,0,0,1,1.1-1.2,3.453,3.453,0,0,1,1.8-.5A2.965,2.965,0,0,1,106.5,52.9Z"/><path class="b" d="M114.2,58.5v2.3H113a3.649,3.649,0,0,1-2.4-.8,3.18,3.18,0,0,1-.9-2.5V54.3h-1.2V52h1.2V49.8h2.7V52h1.8v2.3h-1.8v3.3a.75.75,0,0,0,.9.9Z"/><path class="b" d="M122.2,52.4a4.1,4.1,0,0,1,1.6,1.6,5.1,5.1,0,0,1,0,4.8,4.1,4.1,0,0,1-1.6,1.6,4.558,4.558,0,0,1-2.3.5,6.042,6.042,0,0,1-2.4-.5,3.539,3.539,0,0,1-1.6-1.6,5.1,5.1,0,0,1,0-4.8,4.1,4.1,0,0,1,1.6-1.6,4.709,4.709,0,0,1,2.4-.5A4.558,4.558,0,0,1,122.2,52.4Zm-3.7,2.4a2.066,2.066,0,0,0-.5,1.6,2.544,2.544,0,0,0,.5,1.6,1.708,1.708,0,0,0,2.6,0,2.066,2.066,0,0,0,.5-1.6,2.544,2.544,0,0,0-.5-1.6,1.612,1.612,0,0,0-1.3-.6A1.76,1.76,0,0,0,118.5,54.8Z"/></g></g></svg>