<svg xmlns="http://www.w3.org/2000/svg" viewBox="0 0 32.349 32.34"><defs><style>.a{fill:#fff;}</style></defs><g transform="translate(1982 -4132)"><path class="a" d="M28.109,0H4.383A4.386,4.386,0,0,0,0,4.383V27.958A4.386,4.386,0,0,0,4.383,32.34H27.958a4.386,4.386,0,0,0,4.383-4.383V4.383A4.168,4.168,0,0,0,28.109,0Zm3.325,28.109a3.42,3.42,0,0,1-3.476,3.476h-7.1V20.4h4.987c.151,0,.3,0,.3-.3V15.112H21.006V12.694c0-.756.453-1.058,1.209-1.058h3.929V6.347h-4.08a5.948,5.948,0,0,0-3.174.907,6.47,6.47,0,0,0-2.871,4.534,18.289,18.289,0,0,0-.151,2.871v.3H12.09v4.987a.325.325,0,0,0,.3.3h3.627V31.434H4.383A3.42,3.42,0,0,1,.907,27.958V4.383A3.42,3.42,0,0,1,4.383.907H27.958a3.42,3.42,0,0,1,3.476,3.476Z" transform="translate(-1982 4132)"/></g></svg>