<svg xmlns="http://www.w3.org/2000/svg" viewBox="0 0 32.349 32.492"><defs><style>.a{fill:#fff;}</style></defs><g transform="translate(1938.174 -4132)"><g transform="translate(-1929.258 4141.077)"><path class="a" d="M22.372,6.3c-.151,0-.151.151-.3.151a6.4,6.4,0,0,1-1.813.6A.555.555,0,0,1,19.8,6.9a3.414,3.414,0,0,0-4.231-.3,3.528,3.528,0,0,0-1.511,3.022v.6a9.567,9.567,0,0,1-7.1-3.778C6.2,8.566,6.5,10.077,8.016,11.437A2.553,2.553,0,0,1,6.5,10.984a3.046,3.046,0,0,0,.453,1.662A3.464,3.464,0,0,0,9.225,14.46c-.3,0-.453.151-.756.151H7.713a2.689,2.689,0,0,0,1.209,1.662,3.183,3.183,0,0,0,1.965.756A6.774,6.774,0,0,1,5.9,18.54h.151A13.861,13.861,0,0,0,9.527,19.9a9.425,9.425,0,0,0,4.987-.453,8.96,8.96,0,0,0,3.022-1.813A10.072,10.072,0,0,0,20.408,13.4a11.269,11.269,0,0,0,.6-3.929.148.148,0,0,1,.151-.151l1.209-1.209c.151-.151.3-.3.3-.453h0a4.024,4.024,0,0,1-1.813.453A2.657,2.657,0,0,0,22.372,6.3Z" transform="translate(-5.9 -6.006)"/></g><g transform="translate(-1938.174 4132)"><path class="a" d="M28.109,32.491H4.383A4.386,4.386,0,0,1,0,28.109V4.383A4.386,4.386,0,0,1,4.383,0H27.958A4.386,4.386,0,0,1,32.34,4.383V27.958A4.211,4.211,0,0,1,28.109,32.491ZM4.383,1.058A3.42,3.42,0,0,0,.907,4.534V28.109a3.42,3.42,0,0,0,3.476,3.476H27.958a3.42,3.42,0,0,0,3.476-3.476V4.383A3.42,3.42,0,0,0,27.958.907H4.383Z"/></g></g></svg>