<svg xmlns="http://www.w3.org/2000/svg" viewBox="0 0 32.349 32.492"><defs><style>.a{fill:#fff;}</style></defs><g transform="translate(0)"><g transform="translate(7.103 6.952)"><path class="a" d="M13.919,4.6h1.36a8.837,8.837,0,0,1,2.871.6,8.4,8.4,0,0,1,4.08,3.174,8.508,8.508,0,0,1,1.813,4.534.909.909,0,0,0,.151.6v1.36a17.571,17.571,0,0,1-.6,2.72,9.6,9.6,0,0,1-2.116,3.325,6.812,6.812,0,0,1-2.116,1.511,9.107,9.107,0,0,1-4.383,1.209,10.747,10.747,0,0,1-4.836-1.058h-.3a5.414,5.414,0,0,0-1.662.6,16.512,16.512,0,0,1-2.569.756c-.3.151-.6.151-.907.3h0a.148.148,0,0,1,.151-.151c.151-.6.453-1.209.6-1.965.3-.907.6-1.965.907-2.871v-.3c-.151-.3-.3-.453-.3-.756a9.109,9.109,0,0,1-.907-3.476,8.833,8.833,0,0,1,.3-2.871A10.522,10.522,0,0,1,7.118,8.378,6,6,0,0,1,9.687,5.809,9.537,9.537,0,0,1,13.163,4.6ZM6.967,21.828c.151,0,.3,0,.3-.151a23.313,23.313,0,0,1,2.569-.756h.3c.3.151.756.453,1.058.6a8.059,8.059,0,0,0,4.231.6A8.745,8.745,0,0,0,18.6,21.072a6.594,6.594,0,0,0,2.569-2.418,6.879,6.879,0,0,0,1.209-2.871,5.96,5.96,0,0,0-.151-3.627,7.751,7.751,0,0,0-2.871-4.383,8.365,8.365,0,0,0-3.325-1.511,8.013,8.013,0,0,0-5.592.756A7.463,7.463,0,0,0,7.42,9.738c-.3.756-.6,1.662-.907,2.569a11.438,11.438,0,0,0-.151,2.267,5.333,5.333,0,0,0,.453,2.116,13.817,13.817,0,0,0,1.058,2.116v.151c-.3.756-.453,1.511-.756,2.267C7.118,21.375,6.967,21.677,6.967,21.828Z" transform="translate(-4.7 -4.6)"/><g transform="translate(4.93 5.138)"><path class="a" d="M9.833,8h.3c.151,0,.3,0,.3.151.151.3.3.453.3.756.151.3.3.756.453,1.058s0,.453-.151.6a1.62,1.62,0,0,1-.3.907.283.283,0,0,0,0,.453,6.2,6.2,0,0,0,2.418,2.418,2.553,2.553,0,0,0,.756.3c.151.151.3,0,.453-.151.3-.3.453-.6.756-.907.151-.151.3-.3.453-.151.6.3,1.36.6,1.965.907.151,0,.151.151.151.3a2.572,2.572,0,0,1-.151,1.058,1.18,1.18,0,0,1-.6.6,2.623,2.623,0,0,1-2.116.453c-.453-.151-1.058-.3-1.511-.453a8.052,8.052,0,0,1-3.022-1.965,9.219,9.219,0,0,1-1.813-2.418,3.112,3.112,0,0,1-.453-2.267,3.136,3.136,0,0,1,.907-1.511A2.246,2.246,0,0,1,9.833,8Z" transform="translate(-7.963 -8)"/></g></g><path class="a" d="M28.109,32.491H4.383A4.386,4.386,0,0,1,0,28.109V4.383A4.386,4.386,0,0,1,4.383,0H27.958A4.386,4.386,0,0,1,32.34,4.383V27.958A4.211,4.211,0,0,1,28.109,32.491ZM4.383,1.058A3.42,3.42,0,0,0,.907,4.534V28.109a3.42,3.42,0,0,0,3.476,3.476H27.958a3.42,3.42,0,0,0,3.476-3.476V4.383A3.42,3.42,0,0,0,27.958.907H4.383Z"/></g></svg>